<svg width="646" height="1445" viewBox="0 0 646 1445" fill="none" xmlns="http://www.w3.org/2000/svg">
<path d="M-437.55 1352.88C-437.564 1353.02 -437.459 1353.14 -437.321 1353.17C-437.134 1353.2 -433.299 1353.8 -426.322 1354.51C-426.168 1354.53 -426.031 1354.42 -426.011 1354.27C-425.997 1354.11 -426.11 1353.97 -426.26 1353.96C-432.702 1353.31 -436.51 1352.73 -437.206 1352.63C-437.383 1352.6 -437.524 1352.7 -437.548 1352.85C-437.549 1352.86 -437.55 1352.87 -437.55 1352.88ZM-415.536 1355.18C-415.55 1355.33 -415.432 1355.46 -415.282 1355.47C-411.663 1355.74 -407.928 1355.97 -404.19 1356.15C-404.039 1356.16 -403.912 1356.04 -403.903 1355.9C-403.887 1355.73 -404.011 1355.6 -404.161 1355.59C-407.881 1355.42 -411.61 1355.19 -415.234 1354.92C-415.393 1354.91 -415.521 1355.02 -415.536 1355.18ZM-393.366 1356.27C-393.367 1356.43 -393.257 1356.56 -393.112 1356.57C-389.399 1356.66 -385.667 1356.72 -382 1356.73C-381.844 1356.73 -381.726 1356.61 -381.721 1356.45C-381.719 1356.38 -381.746 1356.31 -381.804 1356.26C-381.857 1356.2 -381.923 1356.18 -381.995 1356.18C-385.672 1356.16 -389.4 1356.11 -393.079 1356.01C-393.229 1356.01 -393.356 1356.12 -393.366 1356.27ZM-371.192 1356.35C-371.189 1356.53 -371.083 1356.64 -370.938 1356.65C-367.303 1356.59 -363.57 1356.48 -359.828 1356.33C-359.677 1356.32 -359.563 1356.2 -359.558 1356.05C-359.568 1355.89 -359.698 1355.78 -359.849 1355.78C-363.585 1355.93 -367.307 1356.03 -370.919 1356.1C-371.07 1356.1 -371.183 1356.21 -371.192 1356.35ZM-349.048 1355.48C-349.049 1355.49 -349.051 1355.51 -349.051 1355.52C-349.04 1355.65 -348.934 1355.76 -348.799 1355.77C-348.784 1355.77 -348.77 1355.78 -348.755 1355.78C-345.079 1355.55 -341.361 1355.28 -337.697 1354.97C-337.545 1354.96 -337.435 1354.83 -337.444 1354.67C-337.451 1354.6 -337.484 1354.53 -337.538 1354.48C-337.596 1354.43 -337.668 1354.41 -337.736 1354.42C-341.425 1354.73 -345.143 1354.99 -348.785 1355.22C-348.927 1355.24 -349.035 1355.34 -349.048 1355.48ZM-326.971 1353.63C-326.972 1353.64 -326.974 1353.66 -326.971 1353.68C-326.959 1353.81 -326.857 1353.91 -326.722 1353.93C-326.708 1353.93 -326.683 1353.93 -326.669 1353.93C-322.977 1353.54 -319.281 1353.09 -315.66 1352.63C-315.513 1352.61 -315.402 1352.47 -315.426 1352.32C-315.433 1352.24 -315.471 1352.18 -315.531 1352.14C-315.594 1352.09 -315.665 1352.07 -315.734 1352.09C-319.399 1352.56 -323.095 1352.99 -326.733 1353.38C-326.855 1353.39 -326.958 1353.5 -326.971 1353.63ZM-305.008 1350.79C-305.01 1350.81 -305.008 1350.83 -305.005 1350.85C-304.987 1350.98 -304.889 1351.07 -304.764 1351.09C-304.74 1351.09 -304.72 1351.09 -304.691 1351.08C-301.017 1350.52 -297.339 1349.91 -293.761 1349.28C-293.612 1349.25 -293.515 1349.1 -293.54 1348.96C-293.564 1348.81 -293.705 1348.7 -293.859 1348.73C-297.487 1349.38 -301.16 1349.99 -304.78 1350.54C-304.898 1350.55 -304.996 1350.66 -305.008 1350.79ZM-283.199 1346.91C-283.202 1346.94 -283.204 1346.96 -283.197 1346.99C-283.175 1347.11 -283.076 1347.2 -282.956 1347.21C-282.927 1347.21 -282.903 1347.22 -282.873 1347.21C-279.256 1346.48 -275.609 1345.69 -272.046 1344.87C-271.907 1344.84 -271.81 1344.68 -271.84 1344.54C-271.874 1344.39 -272.026 1344.29 -272.17 1344.33C-275.767 1345.15 -279.409 1345.95 -282.981 1346.67C-283.105 1346.69 -283.193 1346.79 -283.199 1346.91ZM-261.623 1341.95C-261.626 1341.98 -261.624 1342.01 -261.617 1342.04C-261.588 1342.15 -261.49 1342.24 -261.374 1342.25C-261.34 1342.25 -261.311 1342.25 -261.28 1342.24C-257.724 1341.33 -254.132 1340.35 -250.595 1339.34C-250.455 1339.3 -250.363 1339.14 -250.403 1339C-250.424 1338.92 -250.467 1338.86 -250.532 1338.83C-250.597 1338.8 -250.674 1338.79 -250.749 1338.8C-254.286 1339.82 -257.877 1340.79 -261.423 1341.7C-261.534 1341.73 -261.616 1341.83 -261.623 1341.95ZM-172.982 340.383C-172.996 340.53 -172.883 340.67 -172.733 340.679C-172.661 340.686 -172.586 340.669 -172.533 340.619C-172.475 340.575 -172.439 340.504 -172.432 340.436C-172.055 336.704 -171.519 333.028 -170.846 329.513C-170.823 329.367 -170.915 329.219 -171.068 329.185C-171.216 329.161 -171.362 329.261 -171.391 329.407C-172.067 332.965 -172.601 336.657 -172.977 340.378L-172.977 340.383L-172.982 340.383ZM-173.664 351.422C-173.751 355.022 -173.714 358.744 -173.553 362.502C-173.547 362.641 -173.445 362.75 -173.311 362.768C-173.296 362.769 -173.282 362.771 -173.267 362.767C-173.116 362.762 -172.996 362.634 -173.007 362.485C-173.163 358.737 -173.197 355.026 -173.118 351.454C-173.113 351.306 -173.233 351.18 -173.387 351.171C-173.528 351.167 -173.65 351.274 -173.664 351.422ZM-168.812 318.684C-168.825 318.816 -168.743 318.933 -168.62 318.97C-168.597 318.977 -168.582 318.979 -168.568 318.98C-168.437 318.992 -168.312 318.905 -168.281 318.779C-167.235 315.226 -166.009 311.725 -164.628 308.373C-164.571 308.234 -164.642 308.064 -164.783 308.011C-164.924 307.958 -165.085 308.017 -165.142 308.16C-166.537 311.55 -167.771 315.076 -168.806 318.625C-168.808 318.644 -168.81 318.659 -168.812 318.684ZM-172.765 373.483C-172.767 373.498 -172.769 373.518 -172.765 373.533C-172.415 377.086 -171.95 380.774 -171.397 384.501C-171.376 384.637 -171.279 384.735 -171.153 384.742C-171.129 384.745 -171.105 384.747 -171.08 384.744C-170.932 384.724 -170.826 384.58 -170.851 384.429C-171.4 380.718 -171.865 377.035 -172.22 373.476C-172.227 373.401 -172.26 373.338 -172.313 373.289C-172.372 373.238 -172.448 373.216 -172.522 373.229C-172.65 373.242 -172.753 373.351 -172.765 373.483ZM-169.527 395.348C-169.529 395.368 -169.531 395.397 -169.524 395.423C-168.858 398.932 -168.087 402.575 -167.238 406.256C-167.21 406.372 -167.111 406.456 -166.995 406.462C-166.966 406.465 -166.942 406.468 -166.912 406.456C-166.763 406.425 -166.671 406.276 -166.701 406.129C-167.544 402.434 -168.315 398.801 -168.983 395.311C-169.013 395.165 -169.159 395.061 -169.308 395.097C-169.422 395.12 -169.515 395.225 -169.527 395.348ZM-160.404 298.259C-160.414 298.367 -160.361 298.471 -160.264 298.525C-160.227 298.544 -160.194 298.552 -160.155 298.555C-160.045 298.571 -159.942 298.511 -159.884 298.413L-159.871 298.384C-159.854 298.351 -159.835 298.318 -159.818 298.29C-158.125 295.186 -156.207 292.079 -154.111 289.043C-154.021 288.917 -154.058 288.74 -154.181 288.659C-154.309 288.573 -154.482 288.6 -154.562 288.727C-156.664 291.777 -158.599 294.908 -160.299 298.026C-160.322 298.064 -160.346 298.106 -160.364 298.144C-160.392 298.186 -160.401 298.225 -160.404 298.259ZM-240.346 1335.86C-240.35 1335.9 -240.344 1335.93 -240.332 1335.96C-240.298 1336.07 -240.203 1336.15 -240.093 1336.16C-240.059 1336.16 -240.025 1336.16 -239.994 1336.15C-236.437 1335.03 -232.914 1333.85 -229.477 1332.66C-229.336 1332.61 -229.252 1332.44 -229.302 1332.31C-229.356 1332.17 -229.51 1332.09 -229.656 1332.14C-233.103 1333.33 -236.636 1334.51 -240.153 1335.62C-240.264 1335.66 -240.341 1335.75 -240.346 1335.86ZM-164.604 416.904C-164.607 416.938 -164.605 416.968 -164.594 416.999C-163.682 420.487 -162.693 424.077 -161.651 427.672C-161.622 427.784 -161.523 427.868 -161.407 427.869C-161.373 427.872 -161.343 427.87 -161.313 427.858C-161.172 427.812 -161.085 427.662 -161.125 427.519C-162.173 423.889 -163.163 420.304 -164.06 416.862C-164.077 416.791 -164.12 416.727 -164.184 416.691C-164.254 416.66 -164.326 416.648 -164.401 416.661C-164.51 416.69 -164.593 416.786 -164.604 416.904ZM-147.924 280.064C-147.933 280.157 -147.892 280.246 -147.825 280.302C-147.785 280.34 -147.728 280.36 -147.675 280.366C-147.589 280.379 -147.498 280.343 -147.442 280.269C-145.139 277.511 -142.647 274.756 -140.041 272.086C-139.939 271.982 -139.941 271.798 -140.043 271.699C-140.154 271.589 -140.33 271.592 -140.437 271.701C-143.07 274.398 -145.563 277.163 -147.861 279.921C-147.899 279.958 -147.923 280.01 -147.924 280.064ZM-158.466 438.165C-158.469 438.199 -158.467 438.229 -158.451 438.265C-157.386 441.674 -156.237 445.215 -155.041 448.79C-154.999 448.903 -154.908 448.976 -154.797 448.982C-154.758 448.985 -154.724 448.984 -154.689 448.967C-154.548 448.921 -154.46 448.766 -154.509 448.623C-155.712 445.027 -156.862 441.486 -157.92 438.103C-157.943 438.037 -157.991 437.977 -158.055 437.942C-158.125 437.905 -158.197 437.898 -158.273 437.921C-158.383 437.955 -158.455 438.052 -158.466 438.165ZM-151.456 459.157C-151.459 459.197 -151.458 459.236 -151.442 459.268C-150.248 462.649 -148.983 466.157 -147.685 469.682C-147.651 469.779 -147.556 469.853 -147.45 469.863C-147.411 469.867 -147.366 469.856 -147.331 469.845C-147.19 469.794 -147.116 469.627 -147.171 469.493C-148.525 465.799 -149.756 462.394 -150.919 459.085C-150.973 458.941 -151.136 458.866 -151.277 458.917C-151.377 458.952 -151.445 459.045 -151.456 459.157ZM-132.521 264.232C-132.529 264.31 -132.501 264.383 -132.448 264.437C-132.405 264.491 -132.34 264.522 -132.272 264.528C-132.195 264.536 -132.115 264.509 -132.056 264.455C-129.374 262.055 -126.522 259.662 -123.6 257.35C-123.48 257.262 -123.463 257.081 -123.553 256.958C-123.649 256.84 -123.822 256.818 -123.943 256.916C-126.907 259.258 -129.754 261.657 -132.425 264.038C-132.484 264.097 -132.514 264.158 -132.521 264.232ZM-219.449 1328.59C-219.453 1328.63 -219.442 1328.68 -219.431 1328.72C-219.397 1328.81 -219.301 1328.88 -219.195 1328.89C-219.152 1328.9 -219.112 1328.89 -219.072 1328.87C-215.613 1327.56 -212.152 1326.17 -208.788 1324.78C-208.651 1324.72 -208.581 1324.55 -208.637 1324.42C-208.696 1324.27 -208.851 1324.21 -209.002 1324.27C-212.388 1325.68 -215.847 1327.06 -219.266 1328.37C-219.371 1328.39 -219.438 1328.48 -219.449 1328.59ZM-143.82 479.923C-143.824 479.967 -143.819 480.007 -143.803 480.048C-142.516 483.424 -141.17 486.899 -139.805 490.371C-139.77 490.469 -139.674 490.537 -139.568 490.548C-139.525 490.552 -139.485 490.546 -139.445 490.53C-139.308 490.473 -139.234 490.307 -139.289 490.173C-140.686 486.623 -142.027 483.148 -143.288 479.855C-143.342 479.711 -143.502 479.641 -143.643 479.697C-143.739 479.732 -143.81 479.819 -143.82 479.923ZM-115.192 250.478C-115.198 250.542 -115.18 250.613 -115.141 250.662C-115.099 250.73 -115.015 250.773 -114.934 250.781C-114.871 250.787 -114.81 250.768 -114.758 250.728C-111.824 248.645 -108.74 246.567 -105.598 244.548C-105.474 244.466 -105.433 244.292 -105.517 244.159C-105.555 244.101 -105.614 244.056 -105.691 244.039C-105.762 244.027 -105.837 244.039 -105.899 244.078C-109.062 246.114 -112.146 248.198 -115.07 250.272C-115.148 250.324 -115.189 250.404 -115.192 250.478ZM-135.737 500.537C-135.741 500.577 -135.731 500.622 -135.72 500.663C-134.309 504.169 -132.912 507.62 -131.559 510.912C-131.511 511.021 -131.42 511.084 -131.314 511.094C-131.275 511.098 -131.23 511.093 -131.194 511.071C-131.058 511.015 -130.984 510.849 -131.044 510.714C-132.432 507.329 -133.829 503.878 -135.204 500.46C-135.232 500.393 -135.285 500.338 -135.35 500.307C-135.415 500.276 -135.493 500.278 -135.559 500.307C-135.66 500.337 -135.732 500.434 -135.737 500.537ZM-199.017 1320.09C-199.021 1320.14 -199.011 1320.19 -198.996 1320.23C-198.956 1320.32 -198.865 1320.38 -198.763 1320.39C-198.72 1320.39 -198.68 1320.39 -198.639 1320.37C-198.624 1320.36 -198.61 1320.36 -198.604 1320.35C-195.288 1318.85 -191.93 1317.27 -188.621 1315.64C-188.483 1315.58 -188.423 1315.4 -188.488 1315.27C-188.521 1315.21 -188.579 1315.15 -188.65 1315.13C-188.721 1315.11 -188.794 1315.11 -188.861 1315.14C-192.144 1316.76 -195.512 1318.35 -198.858 1319.86C-198.95 1319.9 -199.007 1319.99 -199.017 1320.09ZM-127.355 521.022C-127.359 521.066 -127.354 521.112 -127.338 521.153C-125.961 524.457 -124.53 527.896 -123.072 531.368C-123.027 531.461 -122.946 531.524 -122.839 531.529C-122.796 531.538 -122.751 531.532 -122.706 531.512C-122.573 531.45 -122.504 531.283 -122.559 531.144C-123.911 527.936 -125.308 524.595 -126.826 520.934C-126.853 520.867 -126.906 520.812 -126.976 520.781C-127.047 520.754 -127.12 520.752 -127.186 520.781C-127.283 520.831 -127.345 520.919 -127.355 521.022ZM-96.592 238.502C-96.5972 238.556 -96.5829 238.612 -96.5534 238.66C-96.5031 238.744 -96.4203 238.791 -96.3335 238.8C-96.28 238.8 -96.2201 238.786 -96.1734 238.756C-93.0606 236.938 -89.8209 235.117 -86.5325 233.346C-86.3996 233.279 -86.3488 233.106 -86.4186 232.97C-86.4515 232.907 -86.5101 232.857 -86.581 232.835C-86.6524 232.819 -86.7303 232.821 -86.7919 232.855C-90.0698 234.617 -93.3196 236.442 -96.4536 238.278C-96.5316 238.33 -96.5836 238.414 -96.592 238.502ZM-118.785 541.431C-118.79 541.475 -118.779 541.521 -118.764 541.562C-117.269 545.106 -115.747 548.677 -114.441 551.752C-114.406 551.845 -114.315 551.908 -114.213 551.913C-114.17 551.917 -114.121 551.917 -114.08 551.896C-113.943 551.835 -113.874 551.668 -113.929 551.534C-115.613 547.575 -116.987 544.35 -118.261 541.342C-118.288 541.275 -118.342 541.221 -118.407 541.189C-118.477 541.163 -118.555 541.16 -118.617 541.194C-118.713 541.234 -118.775 541.328 -118.785 541.431ZM-179.169 1310.32C-179.174 1310.38 -179.16 1310.43 -179.135 1310.47C-179.095 1310.56 -179.003 1310.62 -178.91 1310.62C-178.862 1310.62 -178.807 1310.61 -178.762 1310.59C-175.511 1308.86 -172.253 1307.05 -169.085 1305.22C-168.957 1305.15 -168.911 1304.97 -168.981 1304.84C-169.061 1304.7 -169.227 1304.66 -169.361 1304.74C-172.544 1306.58 -175.791 1308.38 -179.022 1310.1C-179.113 1310.14 -179.16 1310.23 -179.169 1310.32ZM-110.114 561.795C-110.119 561.844 -110.108 561.884 -110.093 561.93C-109.441 563.455 -108.79 564.985 -108.134 566.521C-107.343 568.376 -106.548 570.237 -105.75 572.108C-105.701 572.207 -105.619 572.269 -105.518 572.279C-105.47 572.284 -105.425 572.278 -105.384 572.257C-105.247 572.201 -105.183 572.029 -105.237 571.89C-106.446 569.062 -107.654 566.234 -108.85 563.428L-109.585 561.712C-109.613 561.645 -109.666 561.595 -109.737 561.568C-109.807 561.542 -109.885 561.539 -109.946 561.568C-110.048 561.608 -110.109 561.696 -110.114 561.795ZM-77.0992 228.02C-77.1039 228.069 -77.0984 228.114 -77.0737 228.161C-77.0287 228.25 -76.9464 228.302 -76.8548 228.311C-76.7969 228.317 -76.7475 228.311 -76.7013 228.286C-73.4328 226.672 -70.0731 225.071 -66.7152 223.539C-66.5833 223.482 -66.5182 223.31 -66.5782 223.175C-66.6378 223.036 -66.8077 222.98 -66.945 223.041C-70.3029 224.573 -73.6674 226.173 -76.9509 227.791C-77.0332 227.838 -77.0898 227.922 -77.0992 228.02ZM-101.428 582.16C-101.432 582.204 -101.422 582.25 -101.412 582.29C-99.8901 585.862 -98.4719 589.191 -97.074 592.478C-97.0391 592.57 -96.9479 592.633 -96.8471 592.648C-96.7989 592.653 -96.7542 592.647 -96.7134 592.626C-96.5766 592.57 -96.5069 592.398 -96.5665 592.259C-97.8844 589.153 -99.3027 585.824 -100.899 582.072C-100.927 582.01 -100.985 581.955 -101.046 581.929C-101.116 581.902 -101.194 581.9 -101.256 581.934C-101.356 581.964 -101.418 582.052 -101.428 582.16ZM-160.016 1299.27C-160.021 1299.33 -160.002 1299.38 -159.973 1299.43C-159.926 1299.5 -159.849 1299.56 -159.762 1299.56C-159.699 1299.57 -159.644 1299.55 -159.592 1299.52C-156.425 1297.54 -153.302 1295.52 -150.306 1293.5C-150.182 1293.42 -150.145 1293.24 -150.231 1293.12C-150.268 1293.05 -150.332 1293.01 -150.409 1293C-150.48 1292.98 -150.555 1293 -150.612 1293.04C-153.634 1295.08 -156.751 1297.09 -159.888 1299.05C-159.96 1299.1 -160.012 1299.18 -160.016 1299.27ZM-92.7821 602.531C-92.7863 602.575 -92.7807 602.621 -92.7652 602.662C-91.3536 606.01 -89.9162 609.444 -88.4775 612.864C-88.4382 612.962 -88.3519 613.025 -88.2459 613.035C-88.2029 613.044 -88.1588 613.038 -88.1131 613.018C-87.9807 612.956 -87.9072 612.8 -87.9624 612.666C-87.9707 612.65 -87.974 612.635 -87.9832 612.629C-89.4597 609.096 -90.8976 605.667 -92.2534 602.448C-92.313 602.309 -92.4768 602.243 -92.6141 602.305C-92.7104 602.345 -92.7727 602.433 -92.7821 602.531ZM-56.9649 218.819C-56.9692 218.863 -56.9592 218.908 -56.9485 218.949C-56.9044 219.048 -56.8181 219.11 -56.7169 219.12C-56.6686 219.125 -56.624 219.119 -56.5831 219.098C-53.1912 217.669 -49.7385 216.265 -46.3314 214.932C-46.1999 214.88 -46.125 214.709 -46.1803 214.574C-46.2031 214.508 -46.2612 214.453 -46.3216 214.422C-46.392 214.395 -46.4646 214.393 -46.5302 214.417C-49.9777 215.767 -53.4306 217.17 -56.7927 218.592C-56.8938 218.632 -56.9555 218.72 -56.9649 218.819ZM-141.672 1286.91C-141.678 1286.98 -141.66 1287.05 -141.622 1287.1C-141.57 1287.17 -141.496 1287.21 -141.413 1287.21C-141.346 1287.22 -141.285 1287.2 -141.233 1287.16C-138.258 1285 -135.289 1282.76 -132.397 1280.5C-132.281 1280.41 -132.259 1280.23 -132.351 1280.12C-132.446 1280 -132.614 1279.97 -132.74 1280.07C-135.612 1282.32 -138.58 1284.55 -141.561 1286.72C-141.628 1286.77 -141.664 1286.84 -141.672 1286.91ZM-84.2482 622.961C-84.252 623.001 -84.2468 623.046 -84.2313 623.087C-82.7334 626.701 -81.3553 630.045 -80.0148 633.322C-79.9707 633.42 -79.8846 633.483 -79.7736 633.494C-79.7351 633.497 -79.695 633.486 -79.655 633.475C-79.5183 633.419 -79.4482 633.247 -79.503 633.108C-81.0098 629.434 -82.3918 626.084 -83.7144 622.874C-83.774 622.734 -83.9381 622.669 -84.0802 622.73C-84.1756 622.76 -84.2374 622.848 -84.2482 622.961ZM-75.866 643.446C-75.8697 643.485 -75.8689 643.53 -75.8486 643.572C-74.4609 647.016 -73.0792 650.47 -71.7384 653.846C-71.7044 653.948 -71.6086 654.012 -71.5025 654.022C-71.4639 654.026 -71.4196 654.02 -71.3791 654.004C-71.2424 653.948 -71.1728 653.781 -71.2281 653.647C-72.5208 650.38 -73.8632 647.024 -75.3424 643.367C-75.3972 643.228 -75.5567 643.163 -75.7027 643.214C-75.7941 643.255 -75.8561 643.343 -75.866 643.446ZM-124.262 1273.29C-124.27 1273.37 -124.243 1273.44 -124.194 1273.49C-124.151 1273.55 -124.081 1273.59 -124.009 1273.59C-123.932 1273.6 -123.861 1273.57 -123.803 1273.53C-121.03 1271.19 -118.226 1268.74 -115.477 1266.24C-115.365 1266.15 -115.352 1265.96 -115.453 1265.85C-115.555 1265.74 -115.734 1265.73 -115.841 1265.83C-118.569 1268.31 -121.367 1270.75 -124.151 1273.1C-124.22 1273.15 -124.255 1273.22 -124.262 1273.29ZM-36.3509 210.749C-36.3547 210.788 -36.3534 210.828 -36.3325 210.865C-36.2981 210.962 -36.2074 211.03 -36.1018 211.046C-36.0633 211.049 -36.0185 211.039 -35.9785 211.028C-32.576 209.793 -29.0669 208.563 -25.5379 207.38C-25.3973 207.334 -25.3133 207.169 -25.3638 207.035C-25.408 206.887 -25.5662 206.812 -25.7117 206.858C-29.1809 208.027 -32.6945 209.251 -36.1673 210.509C-36.2733 210.548 -36.3454 210.64 -36.3509 210.749ZM-67.7059 664.019C-67.7097 664.058 -67.7045 664.103 -67.6881 664.135C-66.2739 667.76 -64.971 671.127 -63.7031 674.451C-63.6691 674.554 -63.5743 674.627 -63.4677 674.632C-63.4243 674.637 -63.3853 674.635 -63.3443 674.615C-63.208 674.563 -63.1337 674.397 -63.189 674.263C-64.4845 670.871 -65.8253 667.397 -67.1725 663.936C-67.2006 663.874 -67.2539 663.819 -67.3138 663.784C-67.3842 663.757 -67.4615 663.75 -67.5323 663.778C-67.629 663.823 -67.6956 663.911 -67.7059 664.019ZM-107.888 1258.44C-107.896 1258.52 -107.869 1258.6 -107.811 1258.65C-107.758 1258.71 -107.697 1258.73 -107.63 1258.74C-107.553 1258.75 -107.472 1258.71 -107.417 1258.65C-104.793 1256.1 -102.184 1253.45 -99.6476 1250.79C-99.5448 1250.68 -99.5466 1250.49 -99.6543 1250.4C-99.7075 1250.34 -99.773 1250.32 -99.8511 1250.32C-99.9239 1250.32 -99.9904 1250.35 -100.039 1250.41C-102.582 1253.08 -105.195 1255.72 -107.799 1258.27C-107.857 1258.31 -107.882 1258.38 -107.888 1258.44ZM-59.7987 684.691C-59.8029 684.735 -59.7973 684.775 -59.7817 684.817C-58.5036 688.236 -57.208 691.726 -55.9437 695.189C-55.9097 695.291 -55.8139 695.36 -55.7078 695.37C-55.6692 695.374 -55.6254 695.373 -55.5849 695.357C-55.4535 695.305 -55.3799 695.144 -55.416 695.011C-55.4242 694.996 -55.432 694.98 -55.431 694.97C-56.7001 691.507 -57.992 688.022 -59.2667 684.618C-59.2895 684.552 -59.3375 684.497 -59.407 684.461C-59.4726 684.435 -59.5501 684.427 -59.616 684.456C-59.7215 684.49 -59.7936 684.587 -59.7987 684.691ZM-15.3752 203.686C-15.3785 203.72 -15.3679 203.761 -15.3611 203.791C-15.3271 203.894 -15.2374 203.972 -15.1266 203.982C-15.088 203.986 -15.0487 203.985 -15.0131 203.968C-11.5129 202.881 -7.9464 201.811 -4.41857 200.791C-4.27793 200.745 -4.1856 200.596 -4.2298 200.448C-4.27447 200.305 -4.42676 200.221 -4.56647 200.257C-8.16946 201.299 -11.7412 202.369 -15.1812 203.437C-15.2876 203.481 -15.3648 203.578 -15.3752 203.686ZM-52.1994 705.477C-52.2031 705.517 -52.2022 705.556 -52.1862 705.593C-50.9784 708.985 -49.743 712.495 -48.5195 716.028C-48.4856 716.13 -48.3856 716.204 -48.2747 716.215C-48.2361 716.218 -48.2015 716.212 -48.1664 716.2C-48.0253 716.149 -47.9418 715.989 -47.9917 715.85C-49.2235 712.302 -50.4583 708.787 -51.6622 705.405C-51.7117 705.261 -51.8703 705.187 -52.0163 705.237C-52.1227 705.282 -52.189 705.369 -52.1994 705.477ZM-92.6534 1242.43C-92.6619 1242.52 -92.6317 1242.6 -92.5588 1242.66C-92.5192 1242.7 -92.4579 1242.72 -92.4001 1242.73C-92.3133 1242.73 -92.2275 1242.7 -92.1723 1242.63C-89.733 1239.87 -87.3163 1237.04 -84.9973 1234.22C-84.9035 1234.1 -84.9243 1233.92 -85.0373 1233.83C-85.1503 1233.74 -85.332 1233.75 -85.4257 1233.87C-87.7337 1236.68 -90.1454 1239.51 -92.5899 1242.27C-92.6278 1242.31 -92.6473 1242.37 -92.6534 1242.43ZM-44.9579 726.393C-44.9616 726.432 -44.9554 726.468 -44.9442 726.503C-43.7462 730.049 -42.5863 733.586 -41.4682 736.999C-41.4395 737.106 -41.3443 737.18 -41.2285 737.191C-41.1948 737.194 -41.1559 737.193 -41.1203 737.177C-40.9796 737.131 -40.8967 736.975 -40.9414 736.832C-42.0873 733.301 -43.2568 729.764 -44.4159 726.321C-44.4388 726.255 -44.4908 726.19 -44.5511 726.159C-44.6211 726.128 -44.694 726.126 -44.7691 726.148C-44.8751 726.188 -44.9523 726.285 -44.9579 726.393ZM-78.626 1225.35C-78.6349 1225.45 -78.59 1225.54 -78.5181 1225.6C-78.4771 1225.63 -78.4255 1225.65 -78.3778 1225.66C-78.2862 1225.66 -78.1845 1225.62 -78.1292 1225.55C-75.8977 1222.62 -73.6885 1219.62 -71.5781 1216.64C-71.4887 1216.52 -71.5248 1216.34 -71.6431 1216.25C-71.7068 1216.2 -71.7781 1216.19 -71.8478 1216.2C-71.9221 1216.22 -71.984 1216.26 -72.0287 1216.32C-74.1329 1219.29 -76.3316 1222.28 -78.569 1225.22C-78.6012 1225.25 -78.6251 1225.3 -78.626 1225.35ZM5.90005 197.553C5.89675 197.588 5.89939 197.613 5.90616 197.643C5.93439 197.755 6.03342 197.839 6.14963 197.845C6.18334 197.848 6.21736 197.846 6.24188 197.844C9.78724 196.895 13.3929 195.977 16.9655 195.101C17.1047 195.07 17.2026 194.915 17.1632 194.768C17.1452 194.702 17.1078 194.634 17.0431 194.598C16.9789 194.557 16.9017 194.549 16.8275 194.562C13.215 195.45 9.60884 196.373 6.10388 197.305C5.98924 197.334 5.91181 197.431 5.90005 197.553ZM-38.1128 747.434C-38.1165 747.474 -38.115 747.508 -38.1033 747.539C-36.9703 751.153 -35.8708 754.709 -34.8491 758.113C-34.8156 758.221 -34.7162 758.299 -34.6 758.306C-34.5663 758.309 -34.5319 758.307 -34.5063 758.295C-34.3657 758.249 -34.2782 758.094 -34.318 757.951C-35.3756 754.464 -36.4697 750.903 -37.5765 747.372C-37.6212 747.229 -37.779 747.149 -37.9244 747.195C-38.0304 747.234 -38.1024 747.326 -38.1128 747.434ZM-31.7149 768.621C-31.7187 768.66 -31.7171 768.695 -31.705 768.721C-30.682 772.265 -29.6671 775.842 -28.6909 779.366C-28.6627 779.478 -28.5637 779.562 -28.4475 779.568C-28.4138 779.571 -28.3793 779.57 -28.3538 779.557C-28.2136 779.516 -28.1209 779.361 -28.1608 779.219C-29.1156 775.776 -30.13 772.194 -31.1744 768.569C-31.2186 768.421 -31.3712 768.337 -31.5215 768.382C-31.6264 768.411 -31.7089 768.507 -31.7149 768.621ZM-65.8636 1207.32C-65.873 1207.41 -65.8239 1207.51 -65.7322 1207.57C-65.6955 1207.59 -65.6532 1207.61 -65.6098 1207.61C-65.5037 1207.62 -65.4065 1207.57 -65.3546 1207.49C-63.3552 1204.44 -61.3659 1201.3 -59.4429 1198.14C-59.3675 1198.01 -59.4136 1197.83 -59.5329 1197.76C-59.6665 1197.68 -59.835 1197.71 -59.9114 1197.85C-61.8219 1200.98 -63.8063 1204.12 -65.8066 1207.18C-65.835 1207.22 -65.8594 1207.27 -65.8636 1207.32ZM-25.8077 789.954C-25.8105 789.983 -25.8085 790.013 -25.7968 790.044C-24.8616 793.589 -23.9368 797.198 -23.0468 800.758C-23.0186 800.87 -22.9156 800.959 -22.7897 800.966C-22.7604 800.964 -22.7362 800.966 -22.7106 800.954C-22.5613 800.919 -22.4685 800.764 -22.5031 800.617C-23.3935 797.061 -24.3234 793.457 -25.2577 789.903C-25.302 789.755 -25.4488 789.666 -25.5982 789.701C-25.7181 789.734 -25.8007 789.831 -25.8077 789.954ZM27.4004 192.276C27.3976 192.305 27.3998 192.33 27.4019 192.36C27.4296 192.477 27.5281 192.565 27.6486 192.577C27.6775 192.58 27.7017 192.582 27.7268 192.575C31.2816 191.781 34.9039 190.998 38.5167 190.259C38.6656 190.229 38.7578 190.079 38.7328 189.933C38.6982 189.786 38.5524 189.683 38.4079 189.718C34.825 190.45 31.188 191.236 27.608 192.038C27.4943 192.056 27.4069 192.157 27.4004 192.276ZM-54.3678 1188.43C-54.3782 1188.54 -54.3202 1188.64 -54.228 1188.7C-54.1908 1188.72 -54.1532 1188.73 -54.1093 1188.73C-54.0033 1188.74 -53.9008 1188.68 -53.8481 1188.59C-52.0591 1185.41 -50.2867 1182.14 -48.5814 1178.86C-48.5151 1178.73 -48.5674 1178.57 -48.6967 1178.5C-48.8357 1178.42 -49.0014 1178.48 -49.0729 1178.61C-50.7711 1181.87 -52.5388 1185.13 -54.3325 1188.32C-54.3507 1188.35 -54.3641 1188.39 -54.3678 1188.43ZM-20.448 811.418C-20.4508 811.447 -20.4483 811.472 -20.4366 811.503C-19.589 815.099 -18.7584 818.723 -17.9706 822.284C-17.9428 822.4 -17.8443 822.489 -17.7238 822.501C-17.6949 822.504 -17.6708 822.506 -17.641 822.499C-17.5017 822.468 -17.4042 822.313 -17.4296 822.172C-18.2043 818.677 -19.0391 815.048 -19.8999 811.386C-19.934 811.234 -20.086 811.145 -20.23 811.176C-20.349 811.199 -20.4362 811.295 -20.448 811.418ZM-44.1523 1168.84C-44.1626 1168.95 -44.1054 1169.06 -43.9978 1169.11C-43.9698 1169.12 -43.9364 1169.13 -43.9074 1169.13C-43.7922 1169.15 -43.6794 1169.08 -43.6348 1168.97C-42.0558 1165.69 -40.4961 1162.32 -38.9901 1158.94C-38.9283 1158.8 -38.9992 1158.63 -39.13 1158.57C-39.1956 1158.54 -39.2735 1158.54 -39.339 1158.56C-39.4098 1158.59 -39.4633 1158.64 -39.4897 1158.71C-40.9904 1162.09 -42.5488 1165.46 -44.1273 1168.73C-44.1407 1168.77 -44.1485 1168.8 -44.1523 1168.84ZM-15.6612 833.02C-15.6641 833.049 -15.6616 833.074 -15.6495 833.1C-14.8936 836.792 -14.1681 840.445 -13.4917 843.951C-13.4698 844.077 -13.3662 844.166 -13.2361 844.178C-13.2115 844.176 -13.1925 844.178 -13.1631 844.175C-13.0243 844.149 -12.9221 843.995 -12.947 843.849C-13.6201 840.309 -14.3503 836.655 -15.109 832.993C-15.1339 832.847 -15.2854 832.753 -15.4343 832.784C-15.5576 832.802 -15.6495 832.897 -15.6612 833.02ZM-11.5002 854.755C-11.5021 854.775 -11.5042 854.799 -11.4964 854.82C-10.8705 858.395 -10.2543 862.068 -9.67064 865.728C-9.64862 865.854 -9.55019 865.947 -9.42486 865.96C-9.40074 865.962 -9.37691 865.964 -9.35232 865.961C-9.20922 865.94 -9.09769 865.793 -9.12216 865.641C-9.70862 862.011 -10.3208 858.343 -10.9573 854.728C-10.9696 854.652 -11.0076 854.589 -11.0718 854.548C-11.1311 854.508 -11.2072 854.491 -11.2766 854.504C-11.4004 854.527 -11.4933 854.632 -11.5002 854.755ZM-35.1873 1148.64C-35.1985 1148.76 -35.1264 1148.87 -35.014 1148.92C-34.986 1148.93 -34.9619 1148.93 -34.933 1148.93C-34.8129 1148.95 -34.6992 1148.88 -34.6594 1148.77C-34.6484 1148.76 -34.6472 1148.74 -34.6463 1148.73C-33.2492 1145.32 -31.901 1141.86 -30.6216 1138.46C-30.5694 1138.32 -30.6414 1138.16 -30.7817 1138.1C-30.8527 1138.08 -30.9306 1138.08 -30.9922 1138.11C-31.0582 1138.14 -31.1167 1138.2 -31.1382 1138.27C-32.4247 1141.69 -33.7778 1145.15 -35.1637 1148.55C-35.1767 1148.58 -35.184 1148.61 -35.1873 1148.64ZM-8.01665 876.604C-8.01806 876.619 -8.02006 876.643 -8.01714 876.663C-7.48153 880.368 -6.98866 884.059 -6.54116 887.617C-6.52494 887.752 -6.41708 887.847 -6.28688 887.859C-6.26276 887.862 -6.24859 887.863 -6.23366 887.859C-6.0809 887.839 -5.97452 887.696 -5.9898 887.551C-6.44477 883.918 -6.9434 880.232 -7.46486 876.583C-7.47712 876.507 -7.51427 876.439 -7.57321 876.394C-7.63695 876.348 -7.70806 876.331 -7.78224 876.344C-7.91135 876.371 -8.00881 876.471 -8.01665 876.604ZM49.0336 187.843C49.0317 187.863 49.034 187.888 49.036 187.918C49.058 188.044 49.1615 188.133 49.2917 188.145C49.3158 188.148 49.3353 188.145 49.3599 188.142C52.9267 187.478 56.589 186.833 60.2479 186.223C60.3963 186.197 60.4935 186.048 60.4734 185.902C60.4485 185.756 60.3074 185.654 60.1541 185.678C56.5 186.289 52.8427 186.935 49.261 187.602C49.1333 187.615 49.0411 187.715 49.0336 187.843ZM-27.42 1127.94C-27.4322 1128.07 -27.3557 1128.19 -27.2331 1128.23C-27.2095 1128.24 -27.1904 1128.24 -27.1662 1128.24C-27.0409 1128.25 -26.9211 1128.17 -26.8857 1128.05C-25.6908 1124.57 -24.5253 1121.04 -23.4322 1117.55C-23.3896 1117.41 -23.4663 1117.25 -23.6125 1117.2C-23.6834 1117.18 -23.7623 1117.18 -23.8239 1117.22C-23.8903 1117.25 -23.935 1117.31 -23.9609 1117.38C-25.0875 1120.96 -26.2435 1124.5 -27.4083 1127.87C-27.4149 1127.89 -27.4181 1127.92 -27.42 1127.94ZM-5.25305 898.552C-5.25492 898.572 -5.25158 898.592 -5.25299 898.607C-4.85347 902.259 -4.47864 905.963 -4.14663 909.609C-4.13474 909.739 -4.03333 909.848 -3.90272 909.855C-3.8834 909.857 -3.86876 909.859 -3.8495 909.861C-3.70202 909.845 -3.5875 909.717 -3.60143 909.557C-3.93981 905.876 -4.31027 902.172 -4.70733 898.545C-4.70994 898.47 -4.74744 898.407 -4.80104 898.358C-4.86478 898.312 -4.93591 898.29 -5.00962 898.298C-5.13778 898.315 -5.24034 898.42 -5.25305 898.552ZM-20.8026 1106.86C-20.8153 1106.99 -20.7297 1107.11 -20.6063 1107.14C-20.5874 1107.15 -20.5682 1107.15 -20.5441 1107.15C-20.4188 1107.16 -20.2936 1107.08 -20.2621 1106.95C-19.2806 1103.51 -18.3048 1099.93 -17.3566 1096.27C-17.3232 1096.13 -17.4106 1095.98 -17.5582 1095.94C-17.6295 1095.93 -17.7028 1095.93 -17.7653 1095.97C-17.8322 1096.01 -17.8722 1096.07 -17.8986 1096.14C-18.8199 1099.72 -19.7964 1103.31 -20.7974 1106.8C-20.7993 1106.82 -20.8007 1106.84 -20.8026 1106.86ZM-3.23654 920.582C-3.23795 920.597 -3.23935 920.612 -3.24076 920.627C-2.97619 924.266 -2.73326 927.977 -2.53029 931.65C-2.51987 931.795 -2.41823 931.904 -2.27843 931.917C-2.25911 931.919 -2.24957 931.92 -2.23511 931.922C-2.08809 931.911 -1.96909 931.784 -1.9743 931.634C-2.1817 927.906 -2.42456 924.195 -2.68709 920.585C-2.68969 920.511 -2.72762 920.448 -2.78129 920.398C-2.83969 920.348 -2.91057 920.326 -2.97901 920.329C-3.12117 920.341 -3.22863 920.449 -3.23654 920.582ZM-15.2638 1085.45C-15.277 1085.58 -15.1866 1085.71 -15.0482 1085.73C-15.039 1085.74 -15.0197 1085.74 -15.01 1085.74C-14.8702 1085.76 -14.7492 1085.66 -14.7167 1085.53C-13.8816 1081.94 -13.0812 1078.3 -12.3344 1074.72C-12.3053 1074.57 -12.3987 1074.43 -12.5463 1074.39C-12.6943 1074.37 -12.8444 1074.46 -12.8734 1074.61C-13.616 1078.15 -14.4111 1081.78 -15.26 1085.41C-15.261 1085.42 -15.2624 1085.43 -15.2638 1085.45ZM-2.02419 942.674C-2.02513 942.684 -2.02607 942.694 -2.02748 942.709C-1.89442 946.4 -1.79211 950.108 -1.72759 953.752C-1.72724 953.901 -1.61645 954.016 -1.47665 954.029C-1.29153 954.027 -1.17301 953.905 -1.17768 953.751C-1.24585 949.992 -1.3471 946.274 -1.48091 942.692C-1.47865 942.618 -1.51591 942.55 -1.56472 942.5C-1.62265 942.445 -1.69307 942.418 -1.76151 942.422C-1.89792 942.424 -2.01055 942.532 -2.02419 942.674ZM-10.742 1063.79C-10.7556 1063.93 -10.6511 1064.06 -10.5122 1064.08C-10.3483 1064.1 -10.2178 1064 -10.1945 1063.86C-9.52427 1060.26 -8.88175 1056.6 -8.27962 1052.96C-8.25449 1052.8 -8.35804 1052.66 -8.50656 1052.64C-8.65994 1052.61 -8.80096 1052.71 -8.83 1052.86C-9.42774 1056.52 -10.0711 1060.18 -10.734 1063.75C-10.7359 1063.77 -10.7415 1063.78 -10.742 1063.79ZM-1.63628 964.791C-1.64381 968.528 -1.68341 972.242 -1.75774 975.864C-1.76706 976.012 -1.65201 976.132 -1.50255 976.146C-1.33768 976.152 -1.20503 976.036 -1.20924 975.877C-1.12832 972.186 -1.08837 968.467 -1.08398 964.814C-1.08386 964.661 -1.20378 964.54 -1.35898 964.535C-1.50505 964.536 -1.62264 964.649 -1.63628 964.791ZM-7.14399 1041.96C-7.15763 1042.1 -7.0484 1042.23 -6.90948 1042.26C-6.75042 1042.27 -6.61349 1042.17 -6.59457 1042.02C-6.07807 1038.46 -5.59272 1034.76 -5.13973 1031.05C-5.10771 1030.91 -5.22907 1030.76 -5.37373 1030.75C-5.52704 1030.72 -5.66409 1030.83 -5.68353 1030.98C-6.13332 1034.61 -6.6233 1038.3 -7.14727 1041.95C-7.14247 1041.95 -7.14305 1041.95 -7.14399 1041.96ZM-2.10002 986.905C-2.24437 990.495 -2.43491 994.215 -2.66174 997.956C-2.66619 998.104 -2.56164 998.228 -2.41265 998.247C-2.25359 998.263 -2.12028 998.141 -2.10617 997.994C-1.88199 994.332 -1.69586 990.613 -1.54352 986.939C-1.54346 986.785 -1.65774 986.655 -1.80814 986.651C-1.9634 986.646 -2.08591 986.758 -2.10002 986.905ZM-4.45091 1019.99C-4.46596 1020.15 -4.35749 1020.28 -4.20276 1020.29C-4.04364 1020.31 -3.91133 1020.2 -3.89675 1020.05C-3.54533 1016.58 -3.22197 1013.05 -2.93663 1009.56L-2.89479 1009.02C-2.88068 1008.88 -2.99337 1008.74 -3.14816 1008.73C-3.29762 1008.71 -3.43589 1008.83 -3.4452 1008.98C-3.46261 1009.16 -3.47528 1009.34 -3.49222 1009.52C-3.77285 1012.96 -4.09478 1016.48 -4.45091 1019.99ZM70.8496 184.197C70.8477 184.216 70.85 184.241 70.8529 184.261C70.8701 184.387 70.9681 184.481 71.093 184.498C71.1171 184.5 71.1371 184.497 71.1665 184.495C74.7548 183.962 78.4483 183.449 82.1335 182.97C82.2767 182.949 82.3924 182.806 82.3676 182.66C82.3479 182.509 82.2119 182.402 82.0596 182.417C78.4134 182.895 74.7249 183.409 71.0826 183.946C70.9636 183.97 70.8613 184.074 70.8496 184.197ZM92.8323 181.35C92.8308 181.364 92.8289 181.384 92.8323 181.399C92.8442 181.529 92.9509 181.634 93.0767 181.641C93.1007 181.643 93.1154 181.644 93.1303 181.641C96.8384 181.228 100.548 180.851 104.161 180.523C104.313 180.508 104.423 180.375 104.413 180.221C104.411 180.146 104.369 180.077 104.314 180.033C104.256 179.982 104.185 179.961 104.116 179.969C100.43 180.309 96.715 180.686 93.0705 181.095C92.9472 181.113 92.8445 181.222 92.8323 181.35ZM114.903 179.309C114.902 179.319 114.9 179.338 114.899 179.348C114.91 179.488 115.017 179.597 115.157 179.606C115.167 179.607 115.186 179.609 115.196 179.605C118.836 179.34 122.552 179.101 126.24 178.895C126.392 178.885 126.511 178.758 126.502 178.598C126.492 178.448 126.362 178.332 126.211 178.337C122.572 178.538 118.851 178.781 115.156 179.051C115.024 179.063 114.916 179.171 114.903 179.309ZM137.006 178.099C137.005 178.109 137.009 178.115 137.008 178.129C137.014 178.273 137.119 178.388 137.264 178.402C137.274 178.403 137.284 178.404 137.294 178.4C141.009 178.27 144.735 178.177 148.355 178.123C148.506 178.118 148.63 177.996 148.625 177.846C148.62 177.692 148.496 177.571 148.345 177.567C144.69 177.627 140.969 177.721 137.268 177.852C137.132 177.849 137.015 177.956 137.006 178.099ZM159.143 177.76C159.146 177.929 159.246 178.048 159.391 178.057C159.401 178.063 159.406 178.058 159.421 178.06C163.029 178.079 166.75 178.139 170.487 178.24C170.638 178.239 170.78 178.124 170.771 177.969C170.78 177.821 170.656 177.695 170.501 177.686C166.783 177.587 163.058 177.526 159.43 177.51C159.264 177.514 159.151 177.622 159.143 177.76ZM168.992 228.957L168.945 229.493C168.931 229.641 169.05 229.781 169.204 229.791C169.354 229.8 169.486 229.689 169.496 229.536C169.514 229.354 169.526 229.177 169.543 229C169.826 225.533 170.293 222.033 170.921 218.623C170.95 218.472 170.851 218.329 170.703 218.3C170.551 218.271 170.409 218.371 170.381 218.517C169.745 221.956 169.282 225.47 168.992 228.957ZM168.681 240.542C168.68 240.552 168.679 240.562 168.677 240.577C168.777 244.215 169.072 247.936 169.54 251.63C169.557 251.76 169.664 251.86 169.8 251.868C169.814 251.869 169.839 251.872 169.854 251.868C170.001 251.852 170.108 251.704 170.088 251.559C169.621 247.895 169.333 244.194 169.233 240.561C169.228 240.411 169.099 240.29 168.953 240.291C168.807 240.292 168.694 240.405 168.681 240.542ZM172.963 207.814C172.951 207.942 173.032 208.064 173.155 208.095C173.169 208.102 173.193 208.109 173.207 208.11C173.337 208.123 173.462 208.036 173.503 207.911C174.526 204.45 175.756 200.959 177.158 197.549C177.215 197.411 177.143 197.24 177.007 197.187C176.937 197.161 176.859 197.158 176.793 197.192C176.727 197.22 176.673 197.269 176.647 197.341C175.239 200.765 174.003 204.266 172.974 207.751C172.966 207.78 172.965 207.795 172.963 207.814ZM171.457 262.462C171.454 262.492 171.456 262.516 171.468 262.547C172.161 265.628 172.981 268.75 173.909 271.814C174.072 272.345 174.217 272.81 174.346 273.244C174.379 273.356 174.474 273.429 174.585 273.44C174.623 273.449 174.663 273.443 174.698 273.431C174.838 273.385 174.926 273.23 174.877 273.087C174.736 272.627 174.596 272.162 174.455 271.703L174.44 271.652C173.504 268.573 172.687 265.47 172.005 262.425C171.987 262.359 171.95 262.291 171.885 262.255C171.82 262.219 171.745 262.197 171.67 262.215C171.555 262.243 171.468 262.344 171.457 262.462ZM181.271 178.368C181.266 178.521 181.376 178.645 181.52 178.664C183.133 178.74 184.706 178.831 186.206 178.916C184.463 181.673 182.829 184.505 181.344 187.317C181.277 187.45 181.329 187.623 181.458 187.695C181.49 187.713 181.529 187.722 181.567 187.726C181.678 187.736 181.781 187.677 181.834 187.582C183.351 184.694 185.04 181.793 186.839 178.957C188.779 179.078 190.708 179.204 192.578 179.344C192.733 179.349 192.865 179.238 192.875 179.09C192.889 178.937 192.771 178.797 192.616 178.792C190.814 178.659 188.987 178.533 187.178 178.424C187.241 178.326 187.304 178.223 187.366 178.125L187.406 178.074C187.48 177.952 187.449 177.771 187.321 177.689C187.261 177.649 187.185 177.631 187.115 177.649C187.046 177.668 186.983 177.711 186.943 177.772C186.812 177.972 186.675 178.177 186.549 178.383C184.875 178.282 183.2 178.191 181.563 178.113C181.408 178.103 181.286 178.215 181.271 178.368ZM177.812 283.645C177.808 283.684 177.818 283.725 177.825 283.755C179.079 287.281 180.389 290.768 181.743 294.11C181.787 294.213 181.873 294.276 181.979 294.286C182.022 294.29 182.062 294.279 182.102 294.268C182.239 294.212 182.309 294.04 182.253 293.911C180.917 290.585 179.596 287.112 178.349 283.572C178.321 283.505 178.268 283.45 178.208 283.415C178.143 283.384 178.066 283.381 177.995 283.404C177.895 283.439 177.822 283.532 177.812 283.645ZM193.269 168.871C193.26 168.964 193.305 169.053 193.377 169.114C193.418 169.148 193.474 169.168 193.527 169.173C193.619 169.182 193.706 169.136 193.761 169.067C195.951 166.219 198.322 163.358 200.807 160.577C200.906 160.463 200.894 160.283 200.786 160.189C200.675 160.084 200.498 160.092 200.395 160.206C197.899 163 195.523 165.865 193.322 168.727C193.294 168.769 193.274 168.817 193.269 168.871ZM186.1 304.145C186.096 304.189 186.105 304.24 186.121 304.281C187.696 307.704 189.341 311.044 191.013 314.219C191.063 314.303 191.145 314.356 191.247 314.365C191.295 314.37 191.35 314.355 191.391 314.334C191.519 314.268 191.57 314.094 191.505 313.959C189.821 310.763 188.179 307.428 186.625 304.052C186.56 303.912 186.395 303.856 186.258 303.917C186.167 303.953 186.109 304.047 186.1 304.145ZM203.341 179.99C203.327 180.143 203.441 180.277 203.59 180.292C207.311 180.659 211.008 181.073 214.585 181.525C214.734 181.545 214.87 181.439 214.895 181.283C214.91 181.13 214.801 180.991 214.652 180.977C210.984 180.516 207.282 180.101 203.647 179.742C203.493 179.727 203.356 179.838 203.341 179.99ZM207.967 152.371C207.959 152.455 207.986 152.532 208.044 152.587C208.088 152.636 208.148 152.661 208.216 152.668C208.297 152.681 208.378 152.649 208.437 152.59C211.009 150.071 213.742 147.552 216.564 145.111C216.671 145.012 216.687 144.836 216.591 144.727C216.548 144.669 216.478 144.637 216.406 144.63C216.328 144.623 216.257 144.651 216.205 144.695C213.382 147.141 210.645 149.659 208.057 152.197C207.999 152.241 207.973 152.303 207.967 152.371ZM196.416 323.695C196.41 323.754 196.424 323.81 196.454 323.858C198.39 327.057 200.417 330.182 202.482 333.151C202.535 333.216 202.608 333.262 202.69 333.27C202.753 333.276 202.818 333.258 202.87 333.218C202.99 333.14 203.017 332.959 202.936 332.833C200.883 329.889 198.861 326.77 196.928 323.576C196.891 323.513 196.827 323.467 196.755 323.45C196.684 323.434 196.605 323.446 196.548 323.48C196.476 323.528 196.424 323.607 196.416 323.695ZM224.667 137.873C224.661 137.937 224.678 138.008 224.722 138.062C224.769 138.126 224.834 138.167 224.916 138.17C224.983 138.176 225.049 138.153 225.106 138.114C227.97 135.895 230.964 133.694 234.014 131.568C234.139 131.49 234.171 131.305 234.085 131.183C233.995 131.06 233.827 131.029 233.698 131.111C230.658 133.233 227.654 135.438 224.764 137.669C224.705 137.728 224.674 137.795 224.667 137.873ZM209.083 341.81C209.076 341.884 209.099 341.951 209.147 342.01C211.505 344.918 213.967 347.717 216.461 350.326C216.519 350.376 216.575 350.402 216.643 350.408C216.72 350.416 216.8 350.389 216.855 350.329C216.962 350.226 216.965 350.042 216.863 349.943C214.386 347.356 211.933 344.567 209.574 341.659C209.531 341.605 209.462 341.564 209.389 341.562C209.312 341.555 209.242 341.578 209.184 341.622C209.121 341.665 209.091 341.732 209.083 341.81ZM225.295 182.777C225.282 182.919 225.387 183.043 225.521 183.071C225.54 183.073 225.55 183.074 225.559 183.075C229.26 183.653 232.912 184.281 236.425 184.946C236.501 184.963 236.576 184.945 236.633 184.901C236.695 184.862 236.736 184.797 236.752 184.724C236.781 184.578 236.678 184.429 236.53 184.4C232.926 183.727 229.255 183.092 225.617 182.525C225.453 182.504 225.321 182.611 225.298 182.752C225.296 182.767 225.295 182.777 225.295 182.777ZM242.806 125.214C242.801 125.268 242.814 125.333 242.849 125.376C242.896 125.45 242.974 125.497 243.061 125.506C243.114 125.511 243.178 125.497 243.225 125.462C246.28 123.539 249.475 121.625 252.708 119.774C252.837 119.702 252.883 119.523 252.813 119.393C252.775 119.329 252.716 119.284 252.64 119.267C252.569 119.245 252.495 119.253 252.433 119.297C249.206 121.138 246.015 123.058 242.934 124.993C242.856 125.055 242.815 125.125 242.806 125.214ZM224.377 357.754C224.368 357.842 224.408 357.93 224.471 357.986C227.296 360.443 230.219 362.746 233.166 364.839C233.216 364.878 233.267 364.898 233.316 364.902C233.417 364.907 233.509 364.861 233.566 364.783C233.655 364.662 233.619 364.48 233.495 364.399C230.548 362.307 227.634 360.009 224.837 357.57C224.778 357.519 224.707 357.498 224.639 357.501C224.56 357.508 224.499 357.542 224.45 357.592C224.407 357.637 224.383 357.69 224.377 357.754ZM247.04 186.882C247.028 187.014 247.123 187.142 247.256 187.17C250.933 187.994 254.548 188.871 257.998 189.782C258.073 189.804 258.147 189.797 258.209 189.753C258.276 189.715 258.316 189.654 258.332 189.586C258.371 189.441 258.284 189.284 258.136 189.25C254.586 188.315 250.968 187.437 247.376 186.631C247.362 186.63 247.342 186.628 247.333 186.627C247.193 186.614 247.072 186.706 247.044 186.842C247.048 186.857 247.042 186.867 247.04 186.882ZM262.013 114.223C262.008 114.272 262.018 114.322 262.037 114.369C262.082 114.458 262.169 114.515 262.267 114.515C262.32 114.52 262.374 114.51 262.41 114.489C265.611 112.818 268.946 111.17 272.315 109.571C272.448 109.509 272.508 109.336 272.448 109.206C272.415 109.139 272.361 109.089 272.29 109.067C272.22 109.041 272.142 109.043 272.081 109.072C268.722 110.668 265.381 112.325 262.155 114.004C262.073 114.045 262.022 114.125 262.013 114.223ZM242.41 370.485C242.4 370.593 242.458 370.692 242.55 370.751C245.817 372.557 249.181 374.158 252.559 375.524C252.582 375.536 252.611 375.539 252.64 375.541C252.76 375.553 252.874 375.485 252.914 375.369C252.971 375.231 252.899 375.071 252.758 375.013C249.405 373.655 246.064 372.06 242.811 370.26C242.746 370.229 242.674 370.217 242.604 370.236C242.534 370.258 242.476 370.303 242.436 370.368C242.427 370.407 242.414 370.445 242.41 370.485ZM268.433 192.539C268.42 192.667 268.501 192.788 268.624 192.825C272.202 193.927 275.728 195.108 279.105 196.324C279.176 196.351 279.254 196.349 279.315 196.315C279.386 196.287 279.435 196.232 279.457 196.16C279.514 196.022 279.432 195.86 279.291 195.807C275.905 194.585 272.374 193.403 268.782 192.295C268.768 192.288 268.749 192.287 268.734 192.285C268.604 192.273 268.479 192.355 268.439 192.475C268.436 192.5 268.434 192.519 268.433 192.539ZM282.008 104.736C282.004 104.78 282.01 104.825 282.029 104.871C282.064 104.964 282.156 105.027 282.262 105.033C282.301 105.036 282.345 105.026 282.385 105.015C285.776 103.551 289.21 102.14 292.618 100.797C292.759 100.741 292.829 100.574 292.774 100.44C292.719 100.296 292.555 100.226 292.414 100.281C288.95 101.644 285.502 103.058 282.172 104.503C282.079 104.554 282.018 104.637 282.008 104.736ZM262.879 378.715C262.867 378.848 262.957 378.971 263.09 379.003C266.694 379.934 270.36 380.618 273.985 381.031C274.15 381.037 274.281 380.93 274.29 380.782C274.305 380.63 274.196 380.496 274.047 380.481C270.447 380.071 266.799 379.394 263.224 378.466C263.072 378.431 262.928 378.517 262.884 378.666C262.883 378.681 262.881 378.701 262.879 378.715ZM289.233 200.058C289.221 200.181 289.293 200.292 289.401 200.337C292.871 201.8 296.252 203.334 299.452 204.915C299.592 204.983 299.753 204.929 299.825 204.783C299.891 204.655 299.829 204.486 299.7 204.419C296.452 202.818 293.057 201.278 289.615 199.827C289.587 199.814 289.559 199.806 289.539 199.805C289.414 199.793 289.301 199.861 289.256 199.976C289.243 200.004 289.236 200.028 289.233 200.058ZM302.606 96.6396C302.602 96.6789 302.608 96.7191 302.623 96.7602C302.657 96.8627 302.757 96.9367 302.869 96.9423C302.902 96.9456 302.942 96.9444 302.977 96.928C306.454 95.6852 309.979 94.4869 313.448 93.3675C313.589 93.3215 313.672 93.1659 313.627 93.0228C313.578 92.8743 313.425 92.7951 313.279 92.8455C309.735 93.9875 306.204 95.1855 302.794 96.3999C302.688 96.4393 302.616 96.5316 302.606 96.6396ZM284.785 381.19C284.784 381.2 284.783 381.209 284.782 381.224C284.787 381.373 284.917 381.495 285.063 381.489C288.762 381.373 292.479 380.977 296.094 380.317C296.242 380.292 296.34 380.138 296.315 379.991C296.293 379.865 296.189 379.776 296.069 379.765C296.04 379.762 296.02 379.765 295.995 379.767C292.405 380.419 288.728 380.815 285.049 380.928C284.912 380.939 284.798 381.052 284.785 381.19ZM309.051 209.857C309.041 209.965 309.099 210.065 309.191 210.118C312.436 212.006 315.579 213.988 318.518 216.02C318.577 216.061 318.653 216.078 318.718 216.064C318.792 216.047 318.854 216.008 318.899 215.948C318.984 215.827 318.948 215.645 318.834 215.565C315.867 213.52 312.715 211.532 309.465 209.644C309.428 209.626 309.39 209.612 309.347 209.608C309.241 209.602 309.143 209.658 309.086 209.746C309.068 209.779 309.055 209.818 309.051 209.857ZM323.668 89.8375C323.665 89.8718 323.672 89.9022 323.683 89.933C323.711 90.0448 323.811 90.1287 323.927 90.1349C323.956 90.1377 323.99 90.1359 324.015 90.1235C324.035 90.1205 324.045 90.1165 324.056 90.1076C327.539 89.0936 331.117 88.1135 334.686 87.1771C334.83 87.1463 334.922 86.9916 334.888 86.8445C334.848 86.6969 334.696 86.608 334.547 86.6432C330.944 87.5813 327.351 88.5699 323.867 89.5839C323.757 89.6228 323.679 89.7245 323.668 89.8375ZM306.46 377.237C306.457 377.277 306.458 377.312 306.474 377.348C306.524 377.491 306.682 377.566 306.827 377.521C310.304 376.322 313.733 374.857 317.021 373.145C317.149 373.078 317.2 372.905 317.135 372.77C317.09 372.681 317.007 372.628 316.91 372.624C316.862 372.619 316.807 372.634 316.762 372.649C313.51 374.345 310.106 375.803 306.649 376.993C306.543 377.037 306.471 377.129 306.46 377.237ZM327.216 222.432C327.208 222.521 327.248 222.609 327.315 222.67C330.199 225.068 332.928 227.571 335.432 230.126C335.538 230.236 335.713 230.238 335.826 230.129C335.929 230.02 335.927 229.837 335.824 229.738C333.311 227.171 330.565 224.647 327.667 222.247C327.627 222.209 327.575 222.189 327.522 222.184C327.431 222.175 327.334 222.211 327.279 222.28C327.241 222.321 327.221 222.378 327.216 222.432ZM345.09 84.2594C345.087 84.2889 345.09 84.314 345.092 84.344C345.12 84.4607 345.218 84.5493 345.339 84.5561C345.373 84.5593 345.402 84.5571 345.422 84.5541C349.024 83.7249 352.651 82.9379 356.208 82.2234C356.357 82.1931 356.454 82.0437 356.424 81.8971C356.412 81.8216 356.369 81.7629 356.309 81.7225C356.246 81.6767 356.169 81.6646 356.095 81.6822C352.468 82.4147 348.831 83.2008 345.293 84.0211C345.184 84.0403 345.102 84.1366 345.09 84.2594ZM326.011 367.068C326.005 367.132 326.027 367.203 326.061 367.256C326.109 367.315 326.168 367.356 326.245 367.368C326.317 367.38 326.391 367.362 326.449 367.318C329.419 365.164 332.276 362.762 334.938 360.167C335.041 360.063 335.043 359.879 334.941 359.78C334.892 359.731 334.827 359.7 334.76 359.694C334.682 359.691 334.601 359.718 334.547 359.777C331.908 362.34 329.071 364.729 326.122 366.87C326.064 366.914 326.018 366.989 326.011 367.068ZM342.632 238.214C342.625 238.287 342.648 238.354 342.691 238.408C344.97 241.333 347.057 244.389 348.9 247.495C348.938 247.558 348.997 247.604 349.073 247.621C349.144 247.643 349.218 247.635 349.28 247.591C349.409 247.519 349.45 247.34 349.38 247.209C347.515 244.076 345.416 240.999 343.137 238.069C343.08 238.004 343.011 237.962 342.934 237.96C342.861 237.953 342.791 237.971 342.738 238.016C342.681 238.06 342.64 238.135 342.632 238.214ZM341.836 351.703C341.827 351.796 341.866 351.889 341.939 351.945C341.998 351.991 342.073 352.013 342.143 352C342.217 351.987 342.279 351.953 342.323 351.898C344.571 349.001 346.643 345.903 348.502 342.696C348.588 342.56 348.538 342.382 348.408 342.31C348.376 342.287 348.333 342.278 348.295 342.274C348.184 342.264 348.086 342.319 348.034 342.408C346.186 345.596 344.12 348.675 341.893 351.554C341.86 351.596 341.841 351.649 341.836 351.703ZM366.747 79.8839C366.745 79.9036 366.743 79.9281 366.75 79.9487C366.767 80.0792 366.875 80.1689 366.996 80.1805C367.02 80.1828 367.04 80.1797 367.069 80.1776C370.657 79.5504 374.328 78.9659 377.98 78.4242C378.128 78.4037 378.235 78.2552 378.21 78.1091C378.207 78.0345 378.164 77.9708 378.1 77.93C378.041 77.8847 377.97 77.8679 377.901 77.881C374.298 78.4077 370.622 78.9968 366.966 79.6324C366.851 79.656 366.759 79.7562 366.747 79.8839ZM353.857 257.162C353.852 257.211 353.863 257.252 353.878 257.298C355.313 260.653 356.536 264.141 357.511 267.675C357.556 267.823 357.708 267.907 357.858 267.867C357.998 267.831 358.086 267.676 358.046 267.528C357.059 263.968 355.829 260.454 354.386 257.079C354.351 256.986 354.26 256.918 354.159 256.908C354.11 256.904 354.066 256.909 354.025 256.93C353.928 256.975 353.866 257.064 353.857 257.162ZM352.893 332.618C352.881 332.74 352.953 332.851 353.066 332.897C353.136 332.924 353.209 332.926 353.275 332.897C353.346 332.869 353.399 332.82 353.425 332.748C354.827 329.388 356.055 325.867 357.065 322.276C357.104 322.131 357.016 321.979 356.874 321.94C356.855 321.933 356.836 321.932 356.816 321.93C356.686 321.917 356.566 322.005 356.534 322.131C355.525 325.712 354.309 329.214 352.915 332.541C352.903 332.564 352.896 332.588 352.893 332.618ZM359.761 278.376C359.759 278.395 359.762 278.415 359.765 278.435C360.276 281.989 360.58 285.682 360.676 289.404C360.681 289.553 360.805 289.674 360.961 289.669C361.113 289.664 361.232 289.542 361.227 289.388C361.132 285.651 360.826 281.938 360.313 278.354C360.296 278.224 360.188 278.129 360.063 278.117C360.039 278.115 360.024 278.118 360.009 278.122C359.866 278.148 359.768 278.252 359.761 278.376ZM358.935 311.391C358.921 311.533 359.026 311.657 359.165 311.685C359.237 311.697 359.311 311.68 359.369 311.636C359.426 311.597 359.471 311.532 359.483 311.458C360.122 307.787 360.603 304.13 360.894 300.589L360.905 300.466C360.906 300.307 360.797 300.178 360.647 300.168C360.497 300.154 360.361 300.265 360.35 300.422L360.339 300.545C360.05 304.067 359.584 307.71 358.937 311.366C358.937 311.371 358.936 311.386 358.935 311.391ZM388.643 76.6764C388.641 76.6911 388.644 76.7114 388.643 76.7261C388.659 76.8566 388.766 76.956 388.896 76.9685C388.916 76.9703 388.935 76.9722 388.95 76.9687C392.583 76.5341 396.284 76.1458 399.965 75.8052C400.112 75.7945 400.227 75.6618 400.213 75.5068C400.21 75.4321 400.173 75.364 400.119 75.3192C400.06 75.269 399.99 75.2473 399.911 75.2546C396.293 75.5914 392.587 75.9794 388.886 76.4174C388.758 76.4347 388.651 76.5384 388.643 76.6764ZM410.718 74.6412C410.717 74.651 410.716 74.6608 410.714 74.6805C410.725 74.8155 410.827 74.9244 410.966 74.9378C410.981 74.9392 410.996 74.9356 411.011 74.937C414.746 74.6958 418.462 74.5071 422.08 74.3736C422.231 74.3684 422.351 74.236 422.346 74.0819C422.341 73.9327 422.211 73.8161 422.065 73.8219C418.418 73.9526 414.687 74.1448 410.971 74.383C410.833 74.4044 410.731 74.5038 410.718 74.6412ZM432.861 73.8269C432.86 73.8368 432.859 73.8418 432.863 73.8569C432.864 73.9959 432.969 74.115 433.114 74.1289C436.854 74.0963 440.574 74.1211 444.196 74.1963C444.351 74.2012 444.49 74.0807 444.48 73.9261C444.484 73.7778 444.365 73.6524 444.21 73.6425C440.525 73.5663 436.799 73.5508 433.138 73.576C432.992 73.577 432.869 73.6889 432.861 73.8269ZM454.989 74.2854C454.984 74.4387 455.093 74.573 455.238 74.5821C458.947 74.7696 462.656 75.0114 466.286 75.3103C466.44 75.3251 466.572 75.2139 466.583 75.0562C466.597 74.909 466.479 74.7686 466.329 74.7593C462.694 74.4599 458.976 74.217 455.276 74.0304C455.136 74.0269 455.003 74.1381 454.989 74.2854ZM477.042 76.085C477.027 76.2471 477.136 76.3766 477.285 76.3959C480.948 76.8119 484.633 77.2995 488.246 77.8346C488.322 77.8469 488.392 77.8289 488.45 77.7848C488.517 77.7467 488.553 77.6757 488.559 77.6069C488.589 77.4462 488.476 77.3114 488.332 77.2925C484.725 76.753 481.03 76.2646 477.357 75.8477C477.199 75.8274 477.061 75.9381 477.042 76.085ZM498.925 79.3653C498.911 79.5077 499.007 79.6309 499.15 79.6596C502.807 80.3427 506.448 81.0838 509.971 81.888C510.048 81.9052 510.122 81.8876 510.184 81.849C510.241 81.8099 510.287 81.7447 510.303 81.6769C510.33 81.5407 510.239 81.3784 510.091 81.3492C506.552 80.5486 502.903 79.7967 499.246 79.1136C499.077 79.0974 498.951 79.1991 498.923 79.3353C498.926 79.3506 498.925 79.3604 498.925 79.3653ZM520.508 84.2477C520.495 84.3804 520.581 84.4977 520.705 84.5294C520.709 84.5347 520.731 84.507 520.731 84.507L520.724 84.5361C524.334 85.5023 527.897 86.5483 531.322 87.6255C531.392 87.6471 531.471 87.6448 531.532 87.6111C531.594 87.5725 531.644 87.5127 531.67 87.4458C531.718 87.3016 531.635 87.1501 531.489 87.0964C527.994 85.9975 524.415 84.955 520.858 83.9989C520.838 83.997 520.819 83.9952 520.8 83.9933C520.67 83.9808 520.549 84.0684 520.517 84.1992C520.511 84.2134 520.51 84.228 520.508 84.2477ZM541.6 90.9024C541.588 91.0302 541.66 91.1412 541.773 91.1817C545.288 92.476 548.743 93.8436 552.058 95.2475C552.198 95.3104 552.36 95.2466 552.418 95.0985C552.479 94.9656 552.408 94.8002 552.268 94.7372C548.911 93.3143 545.446 91.9458 541.968 90.67C541.944 90.6579 541.925 90.6561 541.896 90.6533C541.776 90.6417 541.657 90.7097 541.617 90.8298C541.604 90.8583 541.602 90.8778 541.6 90.9024ZM561.955 99.5634C561.945 99.6715 562.007 99.7815 562.11 99.8311C565.484 101.483 568.768 103.212 571.884 104.968C572.018 105.045 572.188 104.997 572.259 104.865C572.334 104.739 572.283 104.555 572.159 104.484C569.02 102.715 565.721 100.981 562.352 99.3338C562.319 99.3207 562.29 99.3131 562.262 99.3103C562.146 99.2992 562.038 99.3582 561.984 99.4671C561.966 99.4951 561.959 99.5242 561.955 99.5634ZM581.209 110.429C581.199 110.527 581.244 110.62 581.326 110.678C584.468 112.72 587.511 114.836 590.389 116.996C590.452 117.042 590.524 117.058 590.593 117.045C590.667 117.037 590.729 116.999 590.774 116.939C590.867 116.824 590.836 116.642 590.723 116.552C587.804 114.368 584.748 112.241 581.628 110.221C581.591 110.198 581.549 110.179 581.505 110.18C581.399 110.169 581.302 110.219 581.25 110.304C581.227 110.336 581.213 110.38 581.209 110.429ZM598.895 123.687C598.887 123.775 598.917 123.862 598.984 123.923C601.784 126.343 604.489 128.888 607.044 131.468C607.088 131.522 607.158 131.549 607.236 131.551C607.308 131.553 607.374 131.525 607.433 131.471C607.536 131.362 607.538 131.184 607.437 131.075C604.868 128.484 602.154 125.933 599.35 123.507C599.306 123.463 599.245 123.438 599.182 123.432C599.095 123.423 599.014 123.46 598.954 123.529C598.921 123.575 598.895 123.632 598.895 123.687ZM614.413 139.423C614.407 139.487 614.429 139.559 614.468 139.612C616.852 142.448 619.111 145.382 621.216 148.355C621.254 148.413 621.322 148.459 621.394 148.471C621.466 148.483 621.541 148.465 621.599 148.421C621.718 148.344 621.745 148.163 621.669 148.037C619.557 145.048 617.28 142.098 614.904 139.272C614.856 139.213 614.791 139.182 614.714 139.175C614.641 139.168 614.566 139.19 614.513 139.235C614.455 139.284 614.42 139.345 614.413 139.423ZM627.151 157.451C627.146 157.505 627.16 157.561 627.19 157.608C629.041 160.78 630.776 164.055 632.348 167.359C632.412 167.499 632.582 167.555 632.719 167.494C632.852 167.427 632.912 167.254 632.852 167.12C631.273 163.8 629.525 160.51 627.669 157.332C627.618 157.258 627.54 157.206 627.448 157.197C627.395 157.192 627.34 157.207 627.289 157.231C627.211 157.283 627.16 157.363 627.151 157.451ZM636.646 177.393C636.643 177.433 636.643 177.477 636.665 177.509C636.772 177.812 636.893 178.126 637.008 178.449C637.035 178.521 637.088 178.576 637.157 178.612C637.223 178.638 637.3 178.646 637.366 178.617C637.502 178.566 637.581 178.4 637.526 178.266C637.415 177.953 637.295 177.629 637.174 177.32C637.14 177.218 637.044 177.149 636.938 177.139C636.9 177.135 636.855 177.141 636.815 177.157C636.724 177.193 636.656 177.29 636.646 177.393Z" fill="#292526"/>
</svg>
