<svg width="1600" height="1230" viewBox="0 0 1600 1230" fill="none" xmlns="http://www.w3.org/2000/svg">
<path d="M0.874595 1229.35C0.694452 1229.36 0.549554 1229.21 0.534703 1229.04C0.512805 1228.8 0.154019 1223.92 -0.0230229 1215.1C-0.0256992 1214.9 0.121248 1214.74 0.319943 1214.73C0.512511 1214.73 0.676224 1214.89 0.672606 1215.08C0.83415 1223.23 1.16153 1228.06 1.22335 1228.95C1.23887 1229.17 1.09202 1229.34 0.905837 1229.35C0.893413 1229.35 0.880807 1229.35 0.874595 1229.35ZM0.256313 1201.49C0.0637459 1201.5 -0.0936883 1201.33 -0.0900706 1201.15C-0.0471267 1196.58 0.0496594 1191.87 0.202491 1187.16C0.212322 1186.97 0.365501 1186.82 0.55194 1186.82C0.756931 1186.82 0.9084 1186.99 0.904782 1187.18C0.745404 1191.86 0.648368 1196.57 0.605508 1201.14C0.602058 1201.34 0.448881 1201.49 0.256313 1201.49ZM1.17151 1173.56C0.966268 1173.55 0.821425 1173.4 0.825128 1173.22C1.09036 1168.55 1.40492 1163.86 1.76425 1159.26C1.78021 1159.06 1.9398 1158.92 2.13874 1158.93C2.23201 1158.94 2.31357 1158.98 2.37678 1159.06C2.4399 1159.13 2.46584 1159.22 2.46088 1159.31C2.10172 1163.92 1.78087 1168.6 1.52126 1173.23C1.51143 1173.42 1.35795 1173.57 1.17151 1173.56ZM3.34948 1145.73C3.13173 1145.71 2.99939 1145.57 3.00309 1145.38C3.45627 1140.83 3.97606 1136.16 4.5518 1131.48C4.57405 1131.29 4.7463 1131.16 4.93282 1131.17C5.12581 1131.2 5.25868 1131.37 5.23642 1131.56C4.66681 1136.23 4.15276 1140.89 3.69917 1145.42C3.67692 1145.61 3.53592 1145.74 3.34948 1145.73ZM6.7346 1118.04C6.72217 1118.04 6.69728 1118.04 6.68485 1118.04C6.51671 1118.01 6.38412 1117.87 6.38799 1117.7C6.38774 1117.68 6.38749 1117.66 6.38724 1117.64C7.05741 1113.05 7.77055 1108.41 8.53424 1103.85C8.56892 1103.66 8.74127 1103.53 8.94047 1103.56C9.0339 1103.58 9.10902 1103.63 9.16593 1103.7C9.22293 1103.78 9.24273 1103.87 9.22526 1103.96C8.462 1108.55 7.74294 1113.19 7.0784 1117.74C7.04976 1117.91 6.90232 1118.04 6.7346 1118.04ZM11.3275 1090.53C11.3089 1090.53 11.284 1090.53 11.2653 1090.52C11.1033 1090.5 10.9833 1090.36 10.9809 1090.19C10.9807 1090.17 10.9804 1090.14 10.9864 1090.12C11.8553 1085.53 12.7925 1080.93 13.7435 1076.44C13.7845 1076.26 13.9755 1076.13 14.1625 1076.18C14.2559 1076.2 14.3311 1076.25 14.3757 1076.33C14.4266 1076.41 14.4466 1076.5 14.423 1076.59C13.454 1081.14 12.529 1085.73 11.6654 1090.26C11.6426 1090.41 11.4953 1090.53 11.3275 1090.53ZM17.154 1063.26C17.1292 1063.26 17.1042 1063.26 17.0792 1063.25C16.9234 1063.22 16.8162 1063.09 16.8078 1062.93C16.8074 1062.9 16.813 1062.87 16.8187 1062.84C17.9056 1058.28 19.0486 1053.73 20.2119 1049.31C20.2591 1049.12 20.4564 1049.02 20.6372 1049.06C20.8242 1049.11 20.9387 1049.3 20.8854 1049.49C19.7044 1053.97 18.5613 1058.52 17.492 1063C17.463 1063.15 17.3217 1063.26 17.154 1063.26ZM24.2706 1036.3C24.2333 1036.3 24.2024 1036.3 24.1712 1036.29C24.0216 1036.25 23.9201 1036.12 23.918 1035.96C23.9175 1035.93 23.9171 1035.9 23.929 1035.86C25.2222 1031.4 26.5897 1026.9 27.9834 1022.52C28.037 1022.35 28.2405 1022.24 28.4214 1022.29C28.6024 1022.35 28.7046 1022.55 28.6449 1022.73C27.2394 1027.16 25.8719 1031.64 24.5966 1036.05C24.5614 1036.2 24.426 1036.3 24.2706 1036.3ZM32.7163 1009.74C32.679 1009.74 32.6415 1009.73 32.6041 1009.72C32.4668 1009.67 32.3658 1009.54 32.37 1009.4C32.3694 1009.35 32.3748 1009.32 32.393 1009.28C33.9049 1004.91 35.4974 1000.5 37.134 996.171C37.1938 995.999 37.4035 995.9 37.5784 995.964C37.6721 996 37.7413 996.06 37.7735 996.144C37.8119 996.229 37.8133 996.327 37.7897 996.419C36.153 1000.75 34.5607 1005.16 33.0548 1009.51C33.0007 1009.65 32.8654 1009.74 32.7163 1009.74ZM1298.56 1001.77C1298.37 1001.77 1298.21 1001.61 1298.21 1001.42C1298.21 1001.33 1298.24 1001.24 1298.31 1001.18C1298.37 1001.11 1298.46 1001.07 1298.55 1001.07C1303.27 1000.98 1307.93 1000.69 1312.41 1000.21C1312.6 1000.19 1312.78 1000.32 1312.8 1000.52C1312.82 1000.71 1312.68 1000.88 1312.49 1000.9C1307.96 1001.38 1303.27 1001.67 1298.56 1001.76L1298.56 1001.76L1298.56 1001.77ZM1284.63 1001.48C1280.11 1001.22 1275.44 1000.79 1270.74 1000.2C1270.57 1000.18 1270.44 1000.04 1270.43 999.871C1270.43 999.853 1270.43 999.835 1270.44 999.817C1270.46 999.627 1270.63 999.491 1270.82 999.519C1275.51 1000.1 1280.16 1000.53 1284.65 1000.8C1284.84 1000.81 1284.98 1000.97 1284.98 1001.16C1284.97 1001.34 1284.82 1001.48 1284.63 1001.48ZM1326.21 998.771C1326.04 998.773 1325.91 998.659 1325.87 998.501C1325.87 998.471 1325.87 998.452 1325.87 998.434C1325.86 998.269 1325.99 998.122 1326.15 998.095C1330.71 997.149 1335.23 995.972 1339.58 994.584C1339.76 994.527 1339.97 994.634 1340.02 994.816C1340.07 994.998 1339.98 995.194 1339.8 995.252C1335.4 996.653 1330.85 997.837 1326.29 998.77C1326.26 998.771 1326.24 998.771 1326.21 998.771ZM1257.05 998.083C1257.03 998.083 1257 998.083 1256.98 998.078C1252.56 997.271 1247.98 996.308 1243.36 995.23C1243.19 995.19 1243.08 995.057 1243.08 994.899C1243.08 994.868 1243.08 994.838 1243.09 994.807C1243.13 994.624 1243.32 994.506 1243.51 994.552C1248.11 995.624 1252.68 996.587 1257.11 997.399C1257.2 997.416 1257.28 997.463 1257.34 997.536C1257.39 997.614 1257.41 997.712 1257.39 997.804C1257.36 997.962 1257.21 998.081 1257.05 998.083ZM1229.94 991.765C1229.92 991.765 1229.88 991.766 1229.85 991.754C1225.52 990.556 1221.03 989.214 1216.49 987.769C1216.35 987.722 1216.26 987.589 1216.26 987.443C1216.26 987.406 1216.26 987.376 1216.28 987.339C1216.33 987.155 1216.53 987.055 1216.71 987.107C1221.26 988.546 1225.74 989.888 1230.05 991.087C1230.23 991.139 1230.34 991.333 1230.28 991.516C1230.24 991.657 1230.1 991.763 1229.94 991.765ZM1352.71 990.327C1352.57 990.329 1352.44 990.251 1352.39 990.124C1352.37 990.075 1352.36 990.033 1352.36 989.984C1352.35 989.844 1352.44 989.721 1352.57 989.658L1352.6 989.646C1352.65 989.627 1352.69 989.608 1352.73 989.589C1356.8 987.784 1360.89 985.698 1364.92 983.381C1365.09 983.282 1365.3 983.346 1365.39 983.509C1365.49 983.679 1365.44 983.892 1365.27 983.98C1361.23 986.303 1357.1 988.408 1353.01 990.219C1352.96 990.244 1352.9 990.27 1352.86 990.289C1352.8 990.32 1352.75 990.326 1352.71 990.327ZM42.5542 983.67C42.5045 983.671 42.4609 983.659 42.4234 983.641C42.2922 983.588 42.2096 983.461 42.2015 983.321C42.2009 983.278 42.2126 983.236 42.2307 983.199C44.0039 978.851 45.8401 974.551 47.69 970.361C47.7684 970.19 47.9845 970.101 48.1471 970.178C48.3222 970.261 48.4057 970.462 48.3212 970.64C46.4714 974.842 44.6295 979.154 42.8743 983.452C42.814 983.587 42.691 983.674 42.5542 983.67ZM1203.41 983.366C1203.36 983.367 1203.32 983.361 1203.29 983.343C1199 981.84 1194.6 980.229 1190.2 978.55C1190.06 978.503 1189.97 978.371 1189.98 978.224C1189.98 978.181 1189.98 978.144 1190 978.108C1190.07 977.936 1190.27 977.842 1190.45 977.906C1194.89 979.596 1199.29 981.208 1203.51 982.688C1203.6 982.717 1203.68 982.777 1203.72 982.862C1203.75 982.953 1203.76 983.044 1203.73 983.136C1203.68 983.271 1203.56 983.364 1203.41 983.366ZM1376.82 976.543C1376.7 976.545 1376.6 976.485 1376.53 976.395C1376.49 976.34 1376.47 976.267 1376.47 976.2C1376.46 976.09 1376.52 975.98 1376.62 975.918C1380.31 973.313 1384.03 970.47 1387.65 967.475C1387.79 967.358 1388.02 967.379 1388.13 967.518C1388.26 967.669 1388.24 967.888 1388.09 968.012C1384.43 971.037 1380.71 973.88 1377.01 976.479C1376.96 976.523 1376.89 976.548 1376.82 976.543ZM1177.36 973.473C1177.32 973.474 1177.28 973.468 1177.24 973.444C1173.07 971.756 1168.75 969.949 1164.38 968.081C1164.25 968.015 1164.16 967.894 1164.17 967.754C1164.17 967.705 1164.17 967.663 1164.2 967.62C1164.27 967.448 1164.47 967.353 1164.65 967.43C1169.04 969.31 1173.36 971.118 1177.5 972.794C1177.58 972.83 1177.65 972.896 1177.68 972.981C1177.72 973.072 1177.72 973.163 1177.69 973.255C1177.63 973.39 1177.5 973.471 1177.36 973.473ZM1151.74 962.513C1151.69 962.513 1151.64 962.508 1151.61 962.484C1147.49 960.637 1143.22 958.688 1138.93 956.697C1138.81 956.644 1138.73 956.517 1138.72 956.383C1138.72 956.334 1138.74 956.279 1138.76 956.236C1138.84 956.064 1139.05 955.988 1139.22 956.072C1143.71 958.151 1147.86 960.047 1151.89 961.846C1152.07 961.929 1152.14 962.141 1152.06 962.313C1152.01 962.436 1151.89 962.511 1151.74 962.513ZM1398.28 958.849C1398.18 958.851 1398.09 958.809 1398.03 958.737C1397.96 958.676 1397.93 958.592 1397.93 958.506C1397.93 958.409 1397.97 958.311 1398.04 958.243C1401.33 955.125 1404.63 951.793 1407.83 948.365C1407.95 948.223 1408.18 948.221 1408.33 948.347C1408.47 948.479 1408.47 948.698 1408.34 948.84C1405.09 952.317 1401.79 955.643 1398.53 958.748C1398.45 958.816 1398.37 958.848 1398.28 958.849ZM53.8292 958.198C53.7733 958.199 53.7234 958.181 53.6734 958.164C53.5547 958.11 53.4783 957.984 53.4765 957.849C53.4757 957.795 53.4875 957.746 53.5117 957.696C55.5229 953.492 57.6149 949.293 59.7148 945.215C59.7995 945.049 60.016 944.979 60.1787 945.062C60.3539 945.151 60.4127 945.352 60.322 945.536C58.2038 949.638 56.124 953.838 54.1307 957.993C54.089 958.122 53.9659 958.196 53.8292 958.198ZM1126.48 950.792C1126.42 950.792 1126.37 950.781 1126.32 950.757C1122.22 948.794 1118 946.747 1113.78 944.676C1113.66 944.623 1113.59 944.495 1113.58 944.361C1113.58 944.306 1113.59 944.257 1113.62 944.208C1113.7 944.042 1113.92 943.966 1114.08 944.05C1118.39 946.168 1122.61 948.209 1126.62 950.131C1126.79 950.214 1126.86 950.421 1126.78 950.593C1126.72 950.709 1126.61 950.79 1126.48 950.792ZM1417.32 938.523C1417.24 938.524 1417.15 938.495 1417.09 938.441C1417.01 938.381 1416.97 938.272 1416.97 938.168C1416.97 938.089 1417 938.015 1417.05 937.953C1419.97 934.487 1422.89 930.831 1425.75 927.097C1425.86 926.949 1426.09 926.916 1426.25 927.036C1426.31 927.09 1426.36 927.168 1426.38 927.266C1426.39 927.357 1426.36 927.449 1426.31 927.523C1423.43 931.282 1420.49 934.937 1417.59 938.391C1417.52 938.484 1417.41 938.528 1417.32 938.523ZM1101.44 938.525C1101.39 938.525 1101.34 938.508 1101.29 938.49C1097.03 936.359 1092.85 934.25 1088.86 932.212C1088.73 932.141 1088.66 932.02 1088.65 931.886C1088.65 931.837 1088.66 931.782 1088.7 931.739C1088.78 931.573 1089 931.497 1089.16 931.586C1093.26 933.678 1097.45 935.786 1101.6 937.864C1101.68 937.905 1101.74 937.978 1101.77 938.063C1101.81 938.148 1101.79 938.245 1101.75 938.325C1101.7 938.448 1101.57 938.529 1101.44 938.525ZM66.599 933.438C66.5431 933.439 66.4807 933.421 66.4307 933.397C66.318 933.338 66.2479 933.217 66.2523 933.089C66.2516 933.034 66.2632 932.985 66.2936 932.936C66.2995 932.918 66.3057 932.9 66.3118 932.893C68.5432 928.887 70.8734 924.837 73.2542 920.853C73.3514 920.687 73.5741 920.63 73.737 920.725C73.8122 920.773 73.8754 920.851 73.8953 920.942C73.9152 921.033 73.9041 921.125 73.8555 921.205C71.4867 925.158 69.1506 929.22 66.9072 933.263C66.8466 933.374 66.7232 933.436 66.599 933.438ZM1076.61 925.895C1076.55 925.896 1076.49 925.884 1076.44 925.861C1072.44 923.793 1068.27 921.642 1064.07 919.454C1063.95 919.389 1063.88 919.28 1063.89 919.146C1063.88 919.091 1063.89 919.036 1063.92 918.98C1064.01 918.821 1064.23 918.751 1064.4 918.834C1068.29 920.861 1072.33 922.959 1076.77 925.24C1076.85 925.282 1076.91 925.354 1076.95 925.445C1076.97 925.536 1076.97 925.628 1076.93 925.708C1076.85 925.825 1076.74 925.894 1076.61 925.895ZM1434.26 916.42C1434.19 916.421 1434.13 916.397 1434.07 916.356C1433.97 916.284 1433.92 916.175 1433.92 916.065C1433.92 915.998 1433.95 915.924 1433.99 915.869C1436.59 912.15 1439.21 908.273 1441.77 904.33C1441.87 904.17 1442.09 904.124 1442.25 904.226C1442.33 904.273 1442.39 904.352 1442.41 904.443C1442.42 904.535 1442.41 904.632 1442.36 904.706C1439.81 908.637 1437.19 912.527 1434.56 916.27C1434.49 916.362 1434.38 916.419 1434.26 916.42ZM1051.88 913.039C1051.83 913.04 1051.77 913.022 1051.72 912.998C1047.43 910.757 1043.1 908.48 1039.38 906.524C1039.27 906.471 1039.2 906.35 1039.2 906.222C1039.2 906.167 1039.2 906.105 1039.24 906.056C1039.33 905.89 1039.54 905.821 1039.71 905.904C1044.5 908.425 1048.4 910.482 1052.05 912.39C1052.13 912.432 1052.19 912.504 1052.22 912.589C1052.25 912.68 1052.24 912.778 1052.2 912.852C1052.14 912.969 1052.01 913.037 1051.88 913.039ZM80.9026 909.541C80.8343 909.542 80.772 909.519 80.7155 909.483C80.6091 909.423 80.5453 909.302 80.5561 909.186C80.5553 909.125 80.579 909.058 80.6031 909.003C83.1155 905.103 85.7213 901.201 88.3472 897.415C88.4445 897.262 88.6737 897.222 88.8304 897.324C88.9935 897.437 89.0277 897.65 88.9181 897.81C86.2862 901.614 83.6864 905.503 81.1922 909.379C81.1378 909.489 81.0206 909.54 80.9026 909.541ZM1027.22 900.059C1027.16 900.06 1027.11 900.042 1027.06 900.019C1025.21 899.044 1023.36 898.069 1021.5 897.088C1019.25 895.904 1017 894.715 1014.73 893.52C1014.61 893.449 1014.54 893.34 1014.54 893.212C1014.54 893.151 1014.55 893.095 1014.58 893.046C1014.67 892.88 1014.89 892.817 1015.06 892.9C1018.48 894.707 1021.91 896.515 1025.3 898.305L1027.38 899.405C1027.46 899.446 1027.52 899.518 1027.55 899.61C1027.57 899.701 1027.57 899.799 1027.53 899.873C1027.47 899.995 1027.35 900.064 1027.22 900.059ZM1449.43 893.042C1449.36 893.043 1449.31 893.032 1449.25 892.996C1449.14 892.93 1449.09 892.822 1449.09 892.706C1449.08 892.633 1449.1 892.571 1449.13 892.516C1451.5 888.581 1453.85 884.531 1456.12 880.475C1456.2 880.316 1456.43 880.252 1456.59 880.341C1456.76 880.43 1456.81 880.649 1456.72 880.815C1454.45 884.87 1452.1 888.927 1449.73 892.88C1449.66 892.979 1449.55 893.041 1449.43 893.042ZM1002.57 887.061C1002.51 887.062 1002.45 887.045 1002.4 887.027C998.08 884.75 994.05 882.628 990.069 880.535C989.957 880.481 989.887 880.36 989.879 880.232C989.878 880.171 989.89 880.116 989.92 880.067C990.005 879.901 990.227 879.831 990.397 879.92C994.158 881.894 998.188 884.017 1002.73 886.407C1002.81 886.449 1002.87 886.527 1002.9 886.606C1002.92 886.697 1002.92 886.795 1002.87 886.869C1002.82 886.991 1002.7 887.06 1002.57 887.061ZM96.7484 886.649C96.6738 886.65 96.6052 886.62 96.5487 886.578C96.4608 886.512 96.4035 886.409 96.402 886.3C96.4009 886.22 96.4311 886.153 96.4738 886.091C99.28 882.321 102.143 878.611 104.983 875.061C105.099 874.913 105.329 874.885 105.473 875.005C105.549 875.059 105.593 875.143 105.607 875.241C105.615 875.332 105.585 875.424 105.53 875.492C102.665 879.074 99.8142 882.777 97.0322 886.51C96.9651 886.596 96.8603 886.653 96.7484 886.649ZM977.897 874.113C977.841 874.114 977.785 874.102 977.735 874.078C973.68 871.962 969.519 869.805 965.376 867.647C965.257 867.587 965.187 867.473 965.185 867.339C965.178 867.284 965.19 867.229 965.22 867.174C965.312 867.014 965.516 866.938 965.678 867.021C965.697 867.033 965.716 867.039 965.722 867.051C970.002 869.268 974.157 871.425 978.056 873.458C978.225 873.548 978.29 873.76 978.199 873.926C978.138 874.042 978.021 874.111 977.897 874.113ZM1463.05 868.728C1462.99 868.729 1462.93 868.711 1462.88 868.694C1462.77 868.628 1462.7 868.514 1462.69 868.386C1462.69 868.325 1462.7 868.269 1462.73 868.22C1464.88 864.111 1466.99 859.924 1469.02 855.786C1469.1 855.627 1469.32 855.55 1469.48 855.634C1469.56 855.669 1469.63 855.748 1469.66 855.827C1469.69 855.918 1469.68 856.009 1469.64 856.089C1467.6 860.275 1465.48 864.463 1463.35 868.535C1463.29 868.658 1463.17 868.726 1463.05 868.728ZM114.139 864.905C114.058 864.906 113.97 864.877 113.907 864.823C113.832 864.751 113.781 864.654 113.792 864.55C113.791 864.465 113.821 864.391 113.876 864.329C116.891 860.819 120.011 857.325 123.146 853.929C123.268 853.793 123.498 853.784 123.63 853.911C123.769 854.043 123.784 854.256 123.65 854.404C120.527 857.776 117.419 861.27 114.392 864.786C114.331 864.866 114.238 864.904 114.139 864.905ZM953.143 861.299C953.093 861.3 953.037 861.289 952.987 861.265C948.607 859.013 944.552 856.939 940.579 854.919C940.46 854.854 940.391 854.739 940.389 854.599C940.388 854.55 940.406 854.501 940.424 854.452C940.508 854.286 940.731 854.216 940.9 854.299C945.355 856.569 949.416 858.648 953.307 860.638C953.476 860.728 953.541 860.94 953.451 861.112C953.403 861.229 953.285 861.297 953.143 861.299ZM928.304 848.67C928.254 848.671 928.198 848.665 928.148 848.635C923.969 846.539 919.777 844.449 915.68 842.419C915.555 842.366 915.485 842.239 915.483 842.105C915.482 842.056 915.494 842.001 915.518 841.952C915.603 841.786 915.82 841.716 915.982 841.799C919.948 843.758 924.021 845.788 928.456 848.021C928.625 848.104 928.69 848.311 928.612 848.489C928.551 848.6 928.434 848.668 928.304 848.67ZM133.025 844.466C132.926 844.467 132.844 844.426 132.781 844.359C132.712 844.299 132.674 844.208 132.679 844.117C132.677 844.019 132.713 843.933 132.775 843.865C135.998 840.626 139.364 837.361 142.775 834.168C142.91 834.039 143.146 834.041 143.272 834.18C143.398 834.318 143.389 834.544 143.254 834.668C139.868 837.836 136.514 841.095 133.278 844.346C133.205 844.426 133.118 844.464 133.025 844.466ZM1475.3 843.695C1475.25 843.695 1475.2 843.69 1475.15 843.66C1475.03 843.606 1474.96 843.486 1474.95 843.352C1474.95 843.303 1474.97 843.248 1474.99 843.199C1476.89 839.057 1478.79 834.781 1480.64 830.475C1480.71 830.303 1480.93 830.215 1481.09 830.292C1481.27 830.362 1481.35 830.569 1481.28 830.747C1479.45 834.979 1477.55 839.261 1475.62 843.489C1475.56 843.618 1475.43 843.699 1475.3 843.695ZM903.332 836.311C903.282 836.311 903.226 836.3 903.188 836.276C898.785 834.128 894.695 832.146 890.654 830.213C890.529 830.16 890.447 830.033 890.451 829.899C890.451 829.844 890.456 829.795 890.486 829.746C890.565 829.58 890.781 829.504 890.944 829.587C895.066 831.562 899.287 833.603 903.49 835.65C903.565 835.692 903.629 835.764 903.667 835.843C903.693 835.934 903.694 836.032 903.652 836.118C903.585 836.234 903.468 836.309 903.332 836.311ZM153.348 825.451C153.249 825.453 153.155 825.412 153.092 825.333C153.028 825.261 153.003 825.182 153.002 825.096C153 824.999 153.049 824.901 153.128 824.839C156.61 821.81 160.203 818.81 163.804 815.901C163.951 815.783 164.181 815.804 164.289 815.949C164.352 816.022 164.378 816.106 164.367 816.204C164.362 816.296 164.314 816.376 164.24 816.432C160.627 819.347 157.04 822.353 153.577 825.357C153.515 825.425 153.429 825.45 153.348 825.451ZM878.209 824.258C878.153 824.259 878.103 824.248 878.053 824.224C873.894 822.268 869.649 820.282 865.434 818.339C865.309 818.286 865.233 818.158 865.231 818.024C865.231 817.976 865.236 817.921 865.26 817.871C865.339 817.712 865.549 817.636 865.711 817.695C865.73 817.707 865.749 817.718 865.761 817.718C869.976 819.668 874.215 821.648 878.355 823.598C878.436 823.634 878.499 823.699 878.538 823.79C878.564 823.875 878.565 823.973 878.523 824.053C878.469 824.182 878.339 824.262 878.209 824.258ZM1486.32 818.104C1486.28 818.105 1486.23 818.087 1486.19 818.075C1486.07 818.022 1485.98 817.902 1485.97 817.761C1485.97 817.713 1485.98 817.664 1486 817.621C1487.73 813.341 1489.44 808.976 1491.08 804.655C1491.15 804.483 1491.35 804.383 1491.53 804.453C1491.71 804.524 1491.8 804.724 1491.74 804.895C1490.06 809.309 1488.35 813.68 1486.65 817.886C1486.59 818.015 1486.46 818.102 1486.32 818.104ZM852.911 812.58C852.861 812.581 852.811 812.576 852.767 812.552C848.635 810.687 844.359 808.775 840.052 806.875C839.927 806.822 839.845 806.689 839.843 806.549C839.842 806.5 839.854 806.457 839.872 806.415C839.95 806.243 840.16 806.154 840.329 806.232C844.655 808.143 848.937 810.054 853.057 811.914C853.232 811.991 853.309 812.197 853.231 812.375C853.164 812.504 853.047 812.578 852.911 812.58ZM175.009 807.986C174.897 807.988 174.791 807.941 174.734 807.844C174.683 807.79 174.664 807.711 174.663 807.638C174.661 807.528 174.71 807.424 174.802 807.362C178.516 804.586 182.318 801.845 186.103 799.227C186.257 799.121 186.488 799.166 186.589 799.317C186.691 799.468 186.65 799.694 186.497 799.8C182.73 802.406 178.934 805.141 175.213 807.923C175.158 807.966 175.09 807.985 175.009 807.986ZM827.414 801.338C827.364 801.339 827.32 801.327 827.277 801.309C822.952 799.441 818.633 797.621 814.465 795.866C814.334 795.819 814.252 795.692 814.25 795.546C814.249 795.503 814.254 795.454 814.279 795.411C814.351 795.239 814.555 795.151 814.73 795.222C819.041 797.024 823.36 798.856 827.56 800.665C827.641 800.701 827.717 800.773 827.749 800.852C827.781 800.943 827.776 801.034 827.74 801.126C827.68 801.255 827.55 801.342 827.414 801.338ZM197.879 792.146C197.761 792.147 197.655 792.082 197.585 791.985C197.553 791.931 197.534 791.864 197.527 791.803C197.525 791.688 197.592 791.565 197.684 791.502C201.589 789.004 205.581 786.542 209.544 784.201C209.704 784.102 209.929 784.166 210.024 784.323C210.075 784.408 210.089 784.499 210.059 784.584C210.035 784.676 209.98 784.75 209.9 784.8C205.956 787.134 201.976 789.584 198.059 792.089C198.016 792.126 197.954 792.151 197.879 792.146ZM1496.21 792.041C1496.17 792.042 1496.13 792.036 1496.1 792.024C1495.96 791.978 1495.86 791.845 1495.87 791.698C1495.87 791.655 1495.87 791.613 1495.88 791.583C1497.44 787.232 1498.96 782.802 1500.43 778.41C1500.48 778.239 1500.68 778.132 1500.86 778.196C1500.95 778.226 1501.03 778.28 1501.07 778.365C1501.11 778.449 1501.11 778.547 1501.09 778.639C1499.6 783.08 1498.07 787.51 1496.54 791.811C1496.49 791.952 1496.36 792.039 1496.21 792.041ZM801.718 790.58C801.669 790.581 801.625 790.575 801.587 790.557C797.17 788.763 792.822 787.017 788.655 785.384C788.524 785.331 788.436 785.198 788.44 785.052C788.439 785.009 788.445 784.966 788.463 784.935C788.535 784.764 788.739 784.67 788.914 784.735C793.18 786.421 797.535 788.161 801.852 789.914C802.027 789.984 802.111 790.191 802.038 790.369C801.978 790.497 801.855 790.578 801.718 790.58ZM775.794 780.368C775.744 780.369 775.701 780.364 775.669 780.346C771.329 778.697 766.945 777.055 762.624 775.466C762.486 775.419 762.391 775.287 762.395 775.14C762.395 775.098 762.4 775.054 762.419 775.024C762.485 774.852 762.688 774.752 762.863 774.816C767.084 776.369 771.475 778.012 775.915 779.696C776.097 779.766 776.186 779.966 776.114 780.15C776.066 780.279 775.937 780.373 775.794 780.368ZM221.829 777.992C221.705 777.994 221.586 777.922 221.522 777.801C221.496 777.752 221.483 777.698 221.483 777.643C221.481 777.509 221.554 777.392 221.665 777.336C225.692 775.141 229.843 772.969 234.008 770.882C234.175 770.801 234.393 770.877 234.476 771.034C234.559 771.21 234.5 771.418 234.321 771.5C230.193 773.574 226.048 775.74 222.008 777.935C221.953 777.966 221.885 777.991 221.829 777.992ZM749.636 770.757C749.599 770.758 749.561 770.752 749.524 770.734C745.172 769.195 740.74 767.663 736.364 766.179C736.227 766.132 736.126 765.994 736.13 765.835C736.135 765.799 736.135 765.768 736.153 765.737C736.213 765.554 736.416 765.453 736.597 765.512C740.967 766.996 745.393 768.534 749.757 770.073C749.938 770.143 750.034 770.337 749.974 770.52C749.921 770.668 749.791 770.761 749.636 770.757ZM1505.05 765.608C1505.01 765.609 1504.98 765.603 1504.94 765.598C1504.8 765.551 1504.7 765.418 1504.7 765.266C1504.69 765.229 1504.69 765.199 1504.71 765.168C1506.07 760.789 1507.42 756.325 1508.72 751.868C1508.78 751.684 1508.97 751.584 1509.16 751.631C1509.34 751.689 1509.45 751.883 1509.39 752.06C1508.1 756.481 1506.74 760.963 1505.37 765.372C1505.33 765.513 1505.2 765.612 1505.05 765.608ZM246.708 765.515C246.572 765.517 246.447 765.433 246.389 765.312C246.37 765.263 246.357 765.215 246.362 765.16C246.36 765.026 246.439 764.903 246.563 764.846C250.743 762.93 255.022 761.042 259.309 759.24C259.482 759.171 259.682 759.253 259.759 759.423C259.836 759.605 259.752 759.807 259.573 759.883C255.317 761.679 251.037 763.56 246.857 765.482C246.808 765.501 246.758 765.514 246.708 765.515ZM723.257 761.82C723.22 761.82 723.189 761.814 723.151 761.797C718.727 760.362 714.265 758.947 709.879 757.591C709.735 757.544 709.634 757.411 709.632 757.259C709.631 757.222 709.631 757.192 709.643 757.155C709.696 756.984 709.9 756.877 710.074 756.924C714.38 758.256 718.848 759.678 723.353 761.135C723.541 761.194 723.637 761.393 723.583 761.571C723.542 761.718 723.412 761.818 723.257 761.82ZM272.344 754.717C272.208 754.718 272.07 754.635 272.024 754.495C272.012 754.459 272.005 754.416 272.004 754.379C271.996 754.233 272.087 754.098 272.23 754.054C276.506 752.41 280.908 750.802 285.304 749.261C285.484 749.197 285.69 749.304 285.748 749.474C285.774 749.559 285.77 749.657 285.733 749.737C285.691 749.822 285.624 749.885 285.531 749.91C281.14 751.445 276.751 753.053 272.481 754.696C272.431 754.709 272.394 754.716 272.344 754.717ZM696.646 753.587C696.609 753.587 696.577 753.581 696.546 753.564C691.992 752.235 687.483 750.948 683.154 749.738C682.998 749.697 682.897 749.558 682.895 749.393C682.901 749.363 682.9 749.339 682.906 749.302C682.953 749.131 683.157 749.018 683.338 749.065C687.71 750.274 692.219 751.567 696.736 752.896C696.916 752.943 697.019 753.143 696.965 753.326C696.93 753.479 696.801 753.585 696.646 753.587ZM669.803 746.125C669.778 746.125 669.747 746.126 669.722 746.114C665.301 744.96 660.756 743.808 656.224 742.698C656.068 742.658 655.96 742.525 655.958 742.366C655.958 742.336 655.957 742.305 655.963 742.275C656.004 742.097 656.201 741.973 656.388 742.019C660.883 743.129 665.422 744.275 669.893 745.447C669.986 745.47 670.062 745.524 670.106 745.609C670.151 745.687 670.164 745.785 670.141 745.87C670.099 746.023 669.958 746.129 669.803 746.125ZM298.611 745.55C298.462 745.552 298.33 745.45 298.285 745.304C298.272 745.268 298.271 745.237 298.271 745.201C298.263 745.049 298.36 744.913 298.503 744.874C298.521 744.862 298.54 744.862 298.552 744.862C302.975 743.46 307.455 742.126 311.856 740.871C312.035 740.82 312.229 740.926 312.288 741.109C312.307 741.2 312.302 741.298 312.254 741.372C312.211 741.452 312.138 741.519 312.045 741.539C307.613 742.8 303.134 744.141 298.729 745.53C298.686 745.543 298.655 745.549 298.611 745.55ZM642.747 739.502C642.729 739.502 642.698 739.502 642.673 739.496C638.079 738.442 633.499 737.443 629.081 736.515C628.913 736.481 628.805 736.336 628.803 736.171C628.803 736.141 628.803 736.123 628.809 736.104C628.849 735.915 629.04 735.796 629.221 735.83C633.732 736.775 638.306 737.781 642.831 738.812C642.925 738.835 643.006 738.888 643.057 738.967C643.108 739.052 643.121 739.143 643.098 739.234C643.05 739.394 642.915 739.506 642.747 739.502ZM1512.84 738.921C1512.81 738.922 1512.78 738.916 1512.75 738.911C1512.59 738.87 1512.49 738.731 1512.49 738.566C1512.49 738.536 1512.49 738.512 1512.5 738.481C1513.7 734.074 1514.89 729.545 1516.03 725.017C1516.08 724.834 1516.27 724.727 1516.45 724.768C1516.63 724.814 1516.75 725.001 1516.7 725.191C1515.56 729.713 1514.37 734.236 1513.16 738.661C1513.14 738.82 1513 738.925 1512.84 738.921ZM325.384 737.938C325.223 737.94 325.085 737.832 325.045 737.674C325.039 737.644 325.038 737.62 325.038 737.589C325.036 737.431 325.152 737.289 325.3 737.256C329.795 736.116 334.347 735.018 338.837 734.006C339.017 733.967 339.211 734.08 339.258 734.268C339.277 734.359 339.26 734.458 339.211 734.531C339.163 734.611 339.083 734.661 338.996 734.687C334.382 735.731 329.824 736.817 325.471 737.93C325.447 737.937 325.409 737.938 325.384 737.938ZM615.493 733.772C615.468 733.772 615.443 733.766 615.425 733.766C610.883 732.888 606.274 732.036 601.734 731.244C601.572 731.215 601.446 731.077 601.45 730.912C601.449 730.888 601.449 730.869 601.449 730.845C601.483 730.661 601.656 730.531 601.855 730.565C606.439 731.369 611.048 732.216 615.558 733.088C615.652 733.099 615.727 733.152 615.784 733.225C615.835 733.309 615.854 733.401 615.837 733.492C615.802 733.651 615.661 733.769 615.493 733.772ZM352.526 731.809C352.358 731.811 352.213 731.691 352.186 731.533C352.18 731.509 352.18 731.484 352.179 731.454C352.177 731.295 352.299 731.147 352.46 731.121C356.878 730.244 361.477 729.389 366.156 728.576C366.342 728.549 366.524 728.674 366.551 728.863C366.565 728.954 366.554 729.046 366.493 729.12C366.438 729.2 366.358 729.244 366.265 729.269C361.684 730.057 357.08 730.912 352.594 731.808C352.569 731.808 352.55 731.808 352.526 731.809ZM588.059 728.97C588.04 728.971 588.022 728.971 588.003 728.971C583.464 728.264 578.832 727.577 574.244 726.943C574.064 726.915 573.938 726.777 573.935 726.6C573.935 726.575 573.935 726.563 573.934 726.545C573.963 726.362 574.135 726.225 574.322 726.247C578.978 726.892 583.61 727.579 588.112 728.281C588.205 728.292 588.28 728.346 588.337 728.418C588.394 728.497 588.414 728.588 588.403 728.673C588.374 728.851 588.227 728.974 588.059 728.97ZM379.959 727.066C379.785 727.068 379.641 726.942 379.62 726.766C379.613 726.754 379.613 726.729 379.613 726.717C379.61 726.54 379.739 726.398 379.913 726.371C384.501 725.693 389.146 725.064 393.717 724.496C393.909 724.475 394.079 724.607 394.106 724.796C394.127 724.984 393.993 725.163 393.801 725.184C389.286 725.751 384.653 726.375 380.009 727.065C379.997 727.066 379.978 727.066 379.959 727.066ZM560.465 725.172C560.452 725.172 560.44 725.172 560.421 725.172C555.804 724.625 551.162 724.114 546.595 723.658C546.408 723.642 546.276 723.491 546.274 723.314C546.295 723.082 546.461 722.946 546.654 722.968C551.363 723.441 556.018 723.951 560.498 724.488C560.592 724.493 560.673 724.547 560.73 724.613C560.793 724.692 560.82 724.783 560.808 724.868C560.792 725.039 560.645 725.169 560.465 725.172ZM407.603 723.625C407.423 723.628 407.272 723.483 407.257 723.307C407.255 723.099 407.389 722.946 407.569 722.931C412.148 722.46 416.808 722.032 421.444 721.652C421.649 721.637 421.806 721.781 421.821 721.97C421.836 722.165 421.695 722.331 421.503 722.352C416.861 722.726 412.195 723.155 407.647 723.619C407.622 723.619 407.61 723.625 407.603 723.625ZM532.754 722.405C528.064 722.029 523.4 721.696 518.848 721.416C518.662 721.413 518.523 721.256 518.52 721.067C518.53 720.859 518.689 720.705 518.888 720.727C523.527 721.005 528.198 721.339 532.782 721.71C532.974 721.725 533.113 721.888 533.103 722.084C533.087 722.267 532.934 722.403 532.754 722.405ZM435.357 721.361C435.177 721.363 435.026 721.213 435.011 721.036C435.008 720.835 435.155 720.674 435.341 720.665C439.867 720.385 444.554 720.157 449.261 719.971C449.429 719.944 449.611 720.113 449.614 720.296C449.629 720.491 449.475 720.651 449.283 720.66C444.682 720.85 440 721.084 435.376 721.366C435.376 721.36 435.369 721.36 435.357 721.361ZM504.959 720.707C500.439 720.518 495.752 720.374 491.035 720.273C490.849 720.263 490.704 720.119 490.695 719.93C490.692 719.729 490.858 719.574 491.044 719.572C495.662 719.668 500.348 719.818 504.974 720.006C505.166 720.021 505.318 720.178 505.308 720.367C505.298 720.563 505.145 720.705 504.959 720.707ZM463.201 720.246C463.002 720.249 462.845 720.099 462.848 719.904C462.845 719.703 462.999 719.548 463.191 719.545C467.576 719.462 472.037 719.42 476.442 719.421L477.125 719.425C477.312 719.422 477.475 719.578 477.472 719.773C477.474 719.962 477.309 720.123 477.122 720.12C476.893 720.123 476.663 720.12 476.439 720.123C472.096 720.121 467.648 720.162 463.201 720.246ZM1519.66 711.924C1519.64 711.924 1519.61 711.919 1519.58 711.913C1519.43 711.879 1519.32 711.746 1519.31 711.587C1519.31 711.557 1519.32 711.532 1519.32 711.496C1520.36 707.048 1521.39 702.467 1522.37 697.892C1522.41 697.715 1522.6 697.584 1522.78 697.63C1522.97 697.671 1523.09 697.852 1523.05 698.042C1522.08 702.568 1521.05 707.143 1520 711.657C1519.96 711.804 1519.82 711.922 1519.66 711.924ZM1525.5 684.635C1525.48 684.635 1525.46 684.636 1525.44 684.63C1525.28 684.602 1525.16 684.457 1525.16 684.298C1525.16 684.268 1525.16 684.249 1525.17 684.231C1526.07 679.621 1526.92 675.005 1527.71 670.506C1527.74 670.317 1527.92 670.192 1528.11 670.22C1528.21 670.231 1528.29 670.291 1528.34 670.364C1528.4 670.442 1528.42 670.533 1528.4 670.619C1527.59 675.21 1526.73 679.832 1525.85 684.362C1525.81 684.515 1525.66 684.633 1525.5 684.635ZM1530.34 657.153C1530.33 657.153 1530.3 657.153 1530.29 657.153C1530.11 657.125 1529.99 656.98 1529.99 656.803C1529.99 656.791 1529.99 656.767 1530 656.755C1530.7 652.214 1531.39 647.577 1532.03 642.97C1532.05 642.781 1532.23 642.644 1532.43 642.672C1532.61 642.7 1532.74 642.875 1532.72 643.064C1532.1 647.61 1531.41 652.254 1530.69 656.861C1530.66 657.026 1530.51 657.15 1530.34 657.153ZM1534.13 629.544C1534.12 629.544 1534.12 629.538 1534.1 629.539C1533.92 629.517 1533.78 629.372 1533.78 629.189C1533.78 629.177 1533.78 629.164 1533.79 629.152C1534.33 624.504 1534.83 619.838 1535.27 615.302C1535.3 615.112 1535.46 614.97 1535.65 614.992C1535.84 615.013 1535.98 615.182 1535.97 615.371C1535.52 619.951 1535.02 624.611 1534.47 629.24C1534.46 629.411 1534.31 629.548 1534.13 629.544ZM1536.84 601.803C1536.63 601.782 1536.49 601.644 1536.49 601.461C1536.49 601.448 1536.49 601.442 1536.49 601.424C1536.84 596.894 1537.15 592.219 1537.41 587.52C1537.43 587.331 1537.58 587.164 1537.78 587.192C1537.96 587.195 1538.11 587.364 1538.11 587.56C1537.85 592.234 1537.54 596.915 1537.18 601.469C1537.16 601.677 1537.02 601.807 1536.84 601.803ZM1473.62 584.167L1472.94 584.171C1472.75 584.173 1472.59 584.01 1472.59 583.815C1472.6 583.626 1472.75 583.471 1472.94 583.475C1473.17 583.472 1473.4 583.475 1473.62 583.472C1478 583.474 1482.44 583.249 1486.78 582.812C1486.98 582.791 1487.15 582.93 1487.17 583.119C1487.19 583.313 1487.05 583.48 1486.86 583.501C1482.48 583.944 1478.02 584.163 1473.62 584.167ZM1459.05 583.364C1459.04 583.364 1459.03 583.364 1459.01 583.364C1454.45 582.865 1449.81 582.111 1445.23 581.142C1445.06 581.107 1444.95 580.963 1444.95 580.792C1444.95 580.774 1444.95 580.743 1444.96 580.724C1444.99 580.541 1445.19 580.423 1445.37 580.463C1449.92 581.426 1454.54 582.168 1459.08 582.668C1459.27 582.69 1459.41 582.865 1459.39 583.048C1459.38 583.231 1459.22 583.361 1459.05 583.364ZM1500.56 581.364C1500.39 581.367 1500.25 581.253 1500.22 581.094C1500.22 581.076 1500.21 581.046 1500.21 581.027C1500.21 580.863 1500.33 580.715 1500.49 580.676C1504.94 579.75 1509.45 578.567 1513.87 577.16C1514.05 577.102 1514.25 577.209 1514.31 577.385C1514.33 577.476 1514.33 577.574 1514.28 577.654C1514.24 577.734 1514.17 577.796 1514.08 577.822C1509.64 579.236 1505.12 580.425 1500.64 581.357C1500.6 581.364 1500.58 581.364 1500.56 581.364ZM1431.83 577.621C1431.8 577.621 1431.76 577.616 1431.73 577.598C1427.93 576.411 1424.1 575.06 1420.35 573.58C1419.7 573.321 1419.13 573.09 1418.6 572.884C1418.47 572.831 1418.38 572.705 1418.38 572.564C1418.37 572.516 1418.39 572.466 1418.4 572.423C1418.48 572.252 1418.68 572.158 1418.85 572.235C1419.42 572.459 1419.99 572.683 1420.55 572.907L1420.61 572.93C1424.38 574.422 1428.19 575.767 1431.94 576.936C1432.02 576.966 1432.1 577.02 1432.14 577.105C1432.17 577.19 1432.19 577.287 1432.16 577.379C1432.12 577.52 1431.98 577.619 1431.83 577.621ZM1538.36 573.975C1538.17 573.966 1538.02 573.815 1538.01 573.632C1538.09 571.6 1538.13 569.618 1538.18 567.727C1534.54 569.63 1530.82 571.388 1527.14 572.962C1526.97 573.031 1526.75 572.949 1526.68 572.779C1526.66 572.737 1526.65 572.688 1526.65 572.639C1526.65 572.499 1526.73 572.376 1526.86 572.32C1530.64 570.713 1534.45 568.894 1538.2 566.928C1538.24 564.482 1538.28 562.048 1538.3 559.688C1538.31 559.493 1538.46 559.338 1538.65 559.342C1538.84 559.339 1539.01 559.501 1539 559.697C1538.98 561.972 1538.95 564.277 1538.9 566.558C1539.03 566.49 1539.16 566.421 1539.29 566.352L1539.36 566.309C1539.52 566.227 1539.75 566.285 1539.84 566.455C1539.88 566.533 1539.89 566.631 1539.86 566.716C1539.83 566.802 1539.77 566.876 1539.69 566.92C1539.43 567.064 1539.16 567.214 1538.88 567.352C1538.84 569.462 1538.78 571.573 1538.71 573.635C1538.71 573.83 1538.55 573.973 1538.36 573.975ZM1405.91 567.463C1405.86 567.464 1405.81 567.447 1405.77 567.435C1401.48 565.499 1397.24 563.495 1393.18 561.452C1393.06 561.387 1392.99 561.272 1392.99 561.138C1392.99 561.083 1393 561.034 1393.02 560.985C1393.11 560.819 1393.33 560.749 1393.49 560.832C1397.52 562.851 1401.74 564.867 1406.06 566.797C1406.14 566.838 1406.2 566.911 1406.24 566.99C1406.27 567.075 1406.27 567.172 1406.23 567.258C1406.18 567.381 1406.05 567.462 1405.91 567.463ZM1551.51 559.9C1551.39 559.902 1551.29 559.836 1551.22 559.74C1551.18 559.685 1551.16 559.612 1551.16 559.545C1551.16 559.429 1551.23 559.325 1551.32 559.262C1555.12 556.808 1558.95 554.128 1562.7 551.297C1562.85 551.185 1563.07 551.218 1563.18 551.363C1563.3 551.514 1563.27 551.735 1563.12 551.853C1559.36 554.696 1555.52 557.382 1551.7 559.849C1551.64 559.88 1551.58 559.899 1551.51 559.9ZM1381.04 554.951C1380.99 554.951 1380.92 554.934 1380.87 554.91C1376.74 552.582 1372.72 550.172 1368.91 547.748C1368.81 547.676 1368.75 547.567 1368.75 547.439C1368.75 547.378 1368.77 547.311 1368.8 547.262C1368.9 547.108 1369.12 547.062 1369.28 547.157C1373.12 549.6 1377.14 552.003 1381.21 554.302C1381.38 554.397 1381.43 554.61 1381.34 554.776C1381.29 554.886 1381.17 554.949 1381.04 554.951ZM1538.6 546.116C1538.41 546.118 1538.25 545.962 1538.25 545.773C1538.17 541.066 1538.03 536.385 1537.83 531.85C1537.82 531.661 1537.97 531.501 1538.17 531.486C1538.36 531.483 1538.53 531.633 1538.53 531.822C1538.73 536.473 1538.87 541.16 1538.94 545.757C1538.95 545.953 1538.79 546.113 1538.6 546.116ZM1573.73 543.159C1573.63 543.161 1573.53 543.119 1573.47 543.041C1573.41 542.981 1573.39 542.902 1573.38 542.816C1573.38 542.713 1573.43 542.615 1573.5 542.547C1576.93 539.579 1580.37 536.41 1583.73 533.121C1583.86 532.997 1584.09 532.994 1584.21 533.127C1584.28 533.187 1584.31 533.278 1584.31 533.369C1584.32 533.467 1584.27 533.553 1584.21 533.615C1580.85 536.904 1577.41 540.079 1573.96 543.065C1573.9 543.132 1573.82 543.158 1573.73 543.159ZM1357.57 539.992C1357.5 539.993 1357.43 539.969 1357.37 539.927C1353.56 537.167 1349.85 534.303 1346.34 531.405C1346.26 531.333 1346.21 531.236 1346.21 531.132C1346.21 531.053 1346.24 530.973 1346.29 530.911C1346.4 530.769 1346.63 530.754 1346.78 530.868C1350.26 533.748 1353.97 536.607 1357.78 539.361C1357.85 539.415 1357.9 539.499 1357.92 539.591C1357.93 539.682 1357.91 539.78 1357.86 539.847C1357.79 539.934 1357.69 539.99 1357.57 539.992ZM1593.64 523.7C1593.56 523.701 1593.48 523.671 1593.41 523.611C1593.34 523.545 1593.29 523.46 1593.3 523.357C1593.3 523.271 1593.33 523.192 1593.39 523.124C1596.47 519.759 1599.54 516.229 1602.52 512.621C1602.63 512.473 1602.86 512.452 1603.01 512.572C1603.15 512.698 1603.18 512.911 1603.06 513.065C1600.08 516.661 1597.01 520.203 1593.91 523.599C1593.83 523.667 1593.74 523.698 1593.64 523.7ZM1336.15 522.23C1336.06 522.231 1335.98 522.196 1335.91 522.13C1332.5 518.87 1329.24 515.493 1326.23 512.095C1326.17 512.016 1326.14 511.944 1326.14 511.858C1326.14 511.761 1326.18 511.663 1326.26 511.601C1326.4 511.477 1326.63 511.492 1326.75 511.63C1329.74 515.005 1332.98 518.37 1336.39 521.63C1336.45 521.69 1336.5 521.78 1336.49 521.872C1336.49 521.969 1336.46 522.055 1336.4 522.123C1336.34 522.197 1336.25 522.229 1336.15 522.23ZM1537.37 518.282C1537.19 518.285 1537.04 518.14 1537.02 517.969C1537.02 517.945 1537.02 517.933 1537.02 517.921C1536.68 513.217 1536.26 508.57 1535.79 504.094C1535.78 503.997 1535.81 503.905 1535.87 503.837C1535.92 503.763 1536.01 503.719 1536.1 503.706C1536.29 503.685 1536.47 503.829 1536.49 504.018C1536.96 508.61 1537.38 513.281 1537.72 517.905C1537.72 518.112 1537.58 518.267 1537.4 518.282C1537.38 518.282 1537.37 518.282 1537.37 518.282ZM1611.4 502.245C1611.33 502.246 1611.25 502.222 1611.2 502.174C1611.11 502.108 1611.06 502.005 1611.06 501.895C1611.06 501.828 1611.08 501.749 1611.13 501.693C1613.86 498.058 1616.59 494.247 1619.24 490.381C1619.35 490.227 1619.58 490.188 1619.73 490.289C1619.81 490.343 1619.86 490.422 1619.87 490.519C1619.89 490.61 1619.88 490.702 1619.81 490.776C1617.17 494.635 1614.43 498.441 1611.69 502.107C1611.6 502.199 1611.51 502.243 1611.4 502.245ZM1317.72 501.397C1317.61 501.399 1317.5 501.34 1317.44 501.255C1314.65 497.457 1312.06 493.552 1309.74 489.638C1309.69 489.572 1309.68 489.505 1309.67 489.444C1309.68 489.316 1309.75 489.205 1309.85 489.143C1310.01 489.043 1310.24 489.107 1310.32 489.27C1312.65 493.185 1315.23 497.077 1318 500.839C1318.06 500.918 1318.08 501.009 1318.07 501.094C1318.05 501.192 1318 501.266 1317.93 501.322C1317.87 501.371 1317.8 501.396 1317.72 501.397ZM1534.46 490.575C1534.29 490.577 1534.14 490.445 1534.12 490.274C1533.46 485.576 1532.74 480.95 1531.95 476.528C1531.93 476.43 1531.94 476.339 1532.01 476.265C1532.06 476.185 1532.14 476.141 1532.23 476.128C1532.41 476.095 1532.6 476.22 1532.63 476.409C1533.44 480.959 1534.17 485.59 1534.81 490.179C1534.81 490.198 1534.81 490.222 1534.81 490.234C1534.81 490.411 1534.68 490.553 1534.51 490.574C1534.49 490.568 1534.48 490.575 1534.46 490.575ZM1627.17 479.279C1627.11 479.28 1627.04 479.262 1626.99 479.233C1626.88 479.167 1626.82 479.052 1626.83 478.93C1626.83 478.863 1626.84 478.796 1626.88 478.752C1629.3 474.908 1631.71 470.894 1634.07 466.831C1634.16 466.671 1634.38 466.613 1634.54 466.703C1634.62 466.751 1634.68 466.823 1634.7 466.914C1634.72 467.006 1634.71 467.103 1634.67 467.177C1632.32 471.227 1629.9 475.248 1627.46 479.123C1627.4 479.221 1627.29 479.277 1627.17 479.279ZM1303.61 477.458C1303.47 477.46 1303.35 477.376 1303.29 477.255C1301.36 472.97 1299.7 468.583 1298.33 464.204C1298.32 464.174 1298.32 464.137 1298.32 464.101C1298.32 463.948 1298.41 463.813 1298.56 463.775C1298.74 463.717 1298.93 463.824 1298.99 464.006C1300.35 468.354 1302.01 472.71 1303.93 476.978C1303.96 477.063 1303.97 477.154 1303.94 477.24C1303.9 477.325 1303.84 477.394 1303.76 477.437C1303.71 477.444 1303.66 477.457 1303.61 477.458ZM1529.56 463.15C1529.4 463.152 1529.26 463.038 1529.23 462.88C1528.21 458.278 1527.09 453.731 1525.91 449.368C1525.89 449.277 1525.9 449.18 1525.95 449.106C1525.99 449.02 1526.06 448.964 1526.16 448.945C1526.34 448.887 1526.53 449.007 1526.58 449.189C1527.77 453.564 1528.89 458.116 1529.91 462.737C1529.91 462.755 1529.91 462.779 1529.91 462.798C1529.92 462.962 1529.8 463.111 1529.65 463.149C1529.61 463.15 1529.59 463.15 1529.56 463.15ZM1641.13 455.168C1641.08 455.169 1641.02 455.157 1640.97 455.127C1640.85 455.074 1640.78 454.953 1640.79 454.819C1640.79 454.77 1640.8 454.715 1640.82 454.666C1643.01 450.563 1645.13 446.399 1647.17 442.262C1647.25 442.09 1647.47 442.02 1647.63 442.103C1647.81 442.186 1647.88 442.399 1647.8 442.571C1645.73 446.776 1643.6 450.957 1641.44 454.987C1641.37 455.098 1641.26 455.166 1641.13 455.168ZM1295.39 450.926C1295.22 450.928 1295.08 450.802 1295.05 450.631C1294.25 446.013 1293.77 441.343 1293.63 436.753C1293.64 436.545 1293.79 436.391 1293.97 436.395C1294.17 436.392 1294.32 436.542 1294.33 436.731C1294.47 441.291 1294.94 445.937 1295.74 450.518C1295.77 450.713 1295.64 450.886 1295.45 450.925C1295.43 450.925 1295.41 450.925 1295.39 450.926ZM1522.27 436.276C1522.12 436.278 1521.99 436.177 1521.94 436.037C1520.46 431.532 1518.89 427.132 1517.23 422.953C1517.16 422.771 1517.25 422.574 1517.44 422.499C1517.6 422.429 1517.81 422.524 1517.88 422.694C1519.56 426.934 1521.14 431.352 1522.6 435.82C1522.62 435.857 1522.62 435.893 1522.62 435.918C1522.63 436.076 1522.53 436.212 1522.38 436.256C1522.34 436.269 1522.31 436.276 1522.27 436.276ZM1653.42 430.158C1653.37 430.159 1653.32 430.147 1653.27 430.124C1653.14 430.07 1653.06 429.937 1653.06 429.797C1653.06 429.754 1653.07 429.705 1653.09 429.662C1655.01 425.428 1656.88 421.129 1658.64 416.891C1658.71 416.719 1658.91 416.631 1659.09 416.702C1659.27 416.779 1659.35 416.979 1659.28 417.157C1657.48 421.487 1655.61 425.793 1653.74 429.946C1653.68 430.075 1653.55 430.156 1653.42 430.158ZM1294.54 423.184C1294.53 423.185 1294.52 423.185 1294.5 423.185C1294.31 423.163 1294.17 422.988 1294.2 422.805C1294.72 418.176 1295.6 413.553 1296.8 409.085C1296.85 408.902 1297.06 408.795 1297.24 408.842C1297.39 408.882 1297.49 409.021 1297.5 409.174C1297.5 409.21 1297.49 409.235 1297.48 409.265C1296.3 413.703 1295.42 418.276 1294.9 422.881C1294.87 423.052 1294.72 423.182 1294.54 423.184ZM1512.02 410.4C1511.89 410.402 1511.77 410.318 1511.71 410.197C1509.67 405.931 1507.51 401.783 1505.26 397.886C1505.22 397.807 1505.21 397.71 1505.23 397.631C1505.26 397.539 1505.31 397.465 1505.39 397.415C1505.56 397.321 1505.78 397.385 1505.87 397.537C1508.13 401.47 1510.3 405.63 1512.33 409.902C1512.35 409.95 1512.36 409.999 1512.37 410.054C1512.36 410.188 1512.28 410.305 1512.16 410.367C1512.12 410.386 1512.07 410.399 1512.02 410.4ZM1664.12 404.432C1664.08 404.432 1664.04 404.421 1664 404.403C1663.87 404.356 1663.77 404.223 1663.77 404.077C1663.77 404.04 1663.78 403.997 1663.8 403.967C1663.8 403.942 1663.81 403.93 1663.82 403.917C1665.45 399.651 1667.05 395.263 1668.6 390.882C1668.65 390.704 1668.85 390.604 1669.03 390.663C1669.21 390.727 1669.31 390.928 1669.25 391.111C1667.7 395.535 1666.09 399.941 1664.46 404.208C1664.4 404.343 1664.26 404.43 1664.12 404.432ZM1301.74 396.395C1301.69 396.396 1301.64 396.391 1301.6 396.367C1301.43 396.29 1301.35 396.084 1301.42 395.906C1303.28 391.667 1305.47 387.515 1307.96 383.567C1308.06 383.413 1308.28 383.367 1308.44 383.462C1308.55 383.528 1308.61 383.637 1308.6 383.759C1308.6 383.82 1308.58 383.887 1308.56 383.943C1306.09 387.848 1303.91 391.969 1302.06 396.184C1302 396.313 1301.87 396.394 1301.74 396.395ZM1498.12 386.311C1498 386.313 1497.9 386.253 1497.83 386.162C1495.12 382.296 1492.26 378.615 1489.31 375.209C1489.18 375.064 1489.2 374.845 1489.35 374.715C1489.49 374.597 1489.72 374.618 1489.84 374.757C1492.8 378.175 1495.68 381.88 1498.39 385.765C1498.44 385.819 1498.46 385.886 1498.46 385.953C1498.46 386.068 1498.41 386.185 1498.31 386.248C1498.26 386.291 1498.18 386.31 1498.12 386.311ZM1673.33 378.128C1673.29 378.129 1673.26 378.123 1673.22 378.117C1673.08 378.07 1672.98 377.937 1672.98 377.785C1672.98 377.742 1672.99 377.706 1672.99 377.681C1674.4 373.247 1675.77 368.777 1677.03 364.388C1677.08 364.204 1677.28 364.098 1677.46 364.15C1677.55 364.173 1677.62 364.234 1677.67 364.312C1677.72 364.397 1677.73 364.494 1677.7 364.586C1676.4 369.061 1675.04 373.543 1673.65 377.898C1673.61 378.033 1673.48 378.126 1673.33 378.128ZM1316.51 372.913C1316.43 372.914 1316.34 372.879 1316.28 372.831C1316.21 372.765 1316.17 372.686 1316.16 372.589C1316.15 372.497 1316.18 372.405 1316.24 372.338C1319.25 368.833 1322.56 365.495 1326.09 362.423C1326.23 362.305 1326.46 362.321 1326.58 362.459C1326.63 362.526 1326.67 362.61 1326.67 362.696C1326.66 362.793 1326.62 362.892 1326.54 362.954C1323.05 366.002 1319.76 369.315 1316.77 372.794C1316.71 372.862 1316.61 372.912 1316.51 372.913ZM1479.9 365.341C1479.81 365.343 1479.73 365.307 1479.67 365.247C1476.23 362.086 1472.61 359.153 1468.9 356.519C1468.83 356.466 1468.78 356.387 1468.76 356.29C1468.74 356.198 1468.76 356.107 1468.82 356.033C1468.93 355.879 1469.16 355.845 1469.31 355.947C1473.05 358.61 1476.7 361.561 1480.14 364.722C1480.21 364.801 1480.26 364.891 1480.25 364.989C1480.25 365.08 1480.22 365.166 1480.16 365.228C1480.1 365.296 1480 365.34 1479.9 365.341ZM1337.42 354.641C1337.31 354.643 1337.19 354.584 1337.13 354.487C1337.08 354.408 1337.06 354.311 1337.08 354.226C1337.11 354.134 1337.15 354.06 1337.23 354.01C1341.1 351.488 1345.2 349.207 1349.41 347.205C1349.59 347.111 1349.81 347.193 1349.89 347.363C1349.91 347.405 1349.92 347.46 1349.92 347.509C1349.92 347.649 1349.84 347.766 1349.72 347.822C1345.53 349.812 1341.46 352.087 1337.62 354.584C1337.56 354.621 1337.49 354.641 1337.42 354.641ZM1681.05 351.405C1681.03 351.405 1681 351.406 1680.97 351.394C1680.81 351.36 1680.71 351.215 1680.7 351.063C1680.7 351.032 1680.71 351.007 1680.72 350.971C1681.87 346.534 1682.98 341.988 1684.04 337.461C1684.08 337.277 1684.28 337.159 1684.46 337.205C1684.55 337.216 1684.63 337.277 1684.67 337.361C1684.72 337.44 1684.74 337.531 1684.71 337.617C1683.68 342.082 1682.56 346.635 1681.39 351.157C1681.35 351.298 1681.21 351.403 1681.05 351.405ZM1457.29 349.304C1457.22 349.305 1457.17 349.287 1457.12 349.263C1453.06 347.116 1448.81 345.223 1444.47 343.635C1444.29 343.564 1444.2 343.364 1444.27 343.18C1444.33 343.008 1444.53 342.914 1444.71 342.979C1449.08 344.585 1453.36 346.49 1457.44 348.649C1457.56 348.702 1457.63 348.823 1457.64 348.951C1457.64 349.012 1457.62 349.068 1457.59 349.117C1457.53 349.233 1457.41 349.302 1457.29 349.304ZM1362.51 342.735C1362.35 342.737 1362.22 342.635 1362.18 342.489C1362.15 342.398 1362.16 342.307 1362.2 342.227C1362.24 342.141 1362.31 342.079 1362.4 342.053C1366.76 340.641 1371.31 339.463 1375.92 338.566C1376.1 338.533 1376.28 338.658 1376.32 338.841C1376.32 338.865 1376.32 338.889 1376.32 338.914C1376.33 339.078 1376.2 339.22 1376.04 339.247C1371.45 340.144 1366.93 341.309 1362.61 342.715C1362.58 342.728 1362.55 342.734 1362.51 342.735ZM1431.28 339.708C1431.25 339.709 1431.23 339.703 1431.2 339.697C1426.8 338.69 1422.19 337.929 1417.53 337.424C1417.35 337.402 1417.21 337.234 1417.23 337.038C1417.25 336.849 1417.42 336.712 1417.61 336.734C1422.29 337.238 1426.92 338.005 1431.36 339.018C1431.52 339.053 1431.63 339.198 1431.63 339.356C1431.63 339.387 1431.63 339.405 1431.62 339.423C1431.57 339.601 1431.43 339.712 1431.28 339.708ZM1389.77 337.342C1389.59 337.344 1389.44 337.2 1389.42 337.023C1389.41 336.932 1389.44 336.84 1389.5 336.772C1389.56 336.705 1389.65 336.655 1389.74 336.647C1394.41 336.224 1399.05 335.997 1403.52 335.998L1403.68 335.996C1403.88 336.011 1404.03 336.162 1404.02 336.351C1404.03 336.54 1403.87 336.7 1403.67 336.697L1403.52 336.699C1399.07 336.698 1394.45 336.907 1389.8 337.341C1389.79 337.341 1389.77 337.342 1389.77 337.342ZM1687.33 324.263C1687.31 324.263 1687.29 324.257 1687.27 324.258C1687.11 324.223 1686.99 324.079 1686.99 323.914C1686.99 323.89 1686.99 323.865 1687 323.847C1687.92 319.334 1688.79 314.73 1689.59 310.146C1689.62 309.962 1689.8 309.832 1689.99 309.866C1690.09 309.877 1690.17 309.931 1690.22 310.003C1690.28 310.082 1690.3 310.173 1690.28 310.27C1689.48 314.775 1688.61 319.386 1687.68 323.984C1687.65 324.143 1687.51 324.266 1687.33 324.263ZM1692.16 296.774C1692.15 296.774 1692.14 296.774 1692.11 296.775C1691.94 296.747 1691.82 296.608 1691.82 296.432C1691.82 296.413 1691.82 296.394 1691.82 296.376C1692.51 291.714 1693.13 287.071 1693.67 282.545C1693.69 282.356 1693.87 282.219 1694.06 282.241C1694.25 282.263 1694.38 282.438 1694.36 282.621C1693.82 287.184 1693.19 291.845 1692.51 296.483C1692.47 296.654 1692.34 296.772 1692.16 296.774ZM1695.47 269.075C1695.45 269.075 1695.45 269.075 1695.43 269.069C1695.25 269.053 1695.12 268.909 1695.11 268.726C1695.54 264.036 1695.89 259.367 1696.17 254.814C1696.18 254.618 1696.35 254.457 1696.54 254.485C1696.73 254.495 1696.87 254.658 1696.87 254.853C1696.58 259.485 1696.22 264.161 1695.81 268.753C1695.79 268.936 1695.64 269.078 1695.47 269.075ZM1697.17 241.262C1696.98 241.252 1696.82 241.102 1696.83 240.919C1696.97 236.246 1697.05 231.568 1697.05 226.982C1697.05 226.787 1697.2 226.632 1697.4 226.636C1697.59 226.633 1697.75 226.796 1697.75 226.985C1697.75 231.577 1697.67 236.267 1697.52 240.928C1697.51 241.105 1697.36 241.26 1697.17 241.262ZM1697.19 213.406C1696.98 213.408 1696.83 213.258 1696.82 213.069C1696.68 208.43 1696.45 203.756 1696.15 199.168C1696.14 199.071 1696.17 198.985 1696.23 198.917C1696.29 198.837 1696.38 198.799 1696.47 198.798C1696.67 198.777 1696.83 198.933 1696.84 199.116C1697.14 203.698 1697.37 208.384 1697.52 213.035C1697.53 213.236 1697.37 213.397 1697.19 213.406ZM1695.33 185.611C1695.15 185.613 1695 185.481 1694.98 185.298C1694.5 180.64 1693.95 175.994 1693.3 171.49C1693.29 171.393 1693.32 171.301 1693.37 171.227C1693.43 171.16 1693.51 171.11 1693.6 171.096C1693.77 171.076 1693.97 171.207 1693.99 171.396C1694.63 175.918 1695.2 180.575 1695.68 185.234C1695.68 185.447 1695.54 185.596 1695.37 185.616C1695.35 185.61 1695.33 185.611 1695.33 185.611ZM1691.43 158.026C1691.26 158.029 1691.12 157.909 1691.09 157.75C1691.09 157.744 1691.12 157.72 1691.12 157.72L1691.09 157.726C1690.25 153.097 1689.3 148.518 1688.3 144.11C1688.28 144.019 1688.29 143.921 1688.34 143.847C1688.4 143.773 1688.48 143.717 1688.56 143.692C1688.75 143.647 1688.93 143.766 1688.98 143.954C1690 148.453 1690.94 153.051 1691.77 157.613C1691.78 157.638 1691.78 157.662 1691.78 157.686C1691.78 157.851 1691.66 157.993 1691.49 158.02C1691.47 158.026 1691.45 158.026 1691.43 158.026ZM1685.25 130.876C1685.09 130.878 1684.96 130.776 1684.92 130.63C1683.66 126.086 1682.3 121.61 1680.88 117.305C1680.81 117.123 1680.91 116.927 1681.1 116.869C1681.27 116.806 1681.47 116.913 1681.54 117.095C1682.98 121.454 1684.34 125.942 1685.58 130.438C1685.59 130.469 1685.59 130.493 1685.59 130.529C1685.6 130.682 1685.5 130.823 1685.34 130.862C1685.31 130.875 1685.28 130.875 1685.25 130.876ZM1676.48 104.443C1676.35 104.444 1676.21 104.355 1676.16 104.221C1674.44 99.8172 1672.61 95.5183 1670.72 91.4274C1670.64 91.2517 1670.72 91.0433 1670.89 90.9678C1671.06 90.8863 1671.28 90.9688 1671.36 91.1324C1673.26 95.2536 1675.09 99.5706 1676.81 103.969C1676.82 104.011 1676.83 104.048 1676.83 104.084C1676.83 104.23 1676.75 104.36 1676.61 104.417C1676.57 104.435 1676.53 104.442 1676.48 104.443ZM1664.83 79.1644C1664.71 79.1661 1664.6 79.1005 1664.53 78.9916C1662.3 74.8385 1659.95 70.8026 1657.54 66.9689C1657.49 66.8842 1657.48 66.7928 1657.5 66.7071C1657.52 66.6154 1657.57 66.5417 1657.65 66.4919C1657.81 66.3861 1658.03 66.4439 1658.13 66.595C1660.57 70.4832 1662.93 74.5371 1665.14 78.6601C1665.16 78.7085 1665.18 78.7633 1665.18 78.8183C1665.18 78.9524 1665.11 79.0693 1664.99 79.1256C1664.95 79.1506 1664.9 79.1636 1664.83 79.1644ZM1650.02 55.606C1649.91 55.6075 1649.8 55.5602 1649.73 55.4696C1646.99 51.7076 1644.07 48.0512 1641.1 44.5788C1641.03 44.5187 1641.01 44.4278 1641.01 44.3302C1641.02 44.2386 1641.06 44.1587 1641.13 44.0906C1641.28 43.9728 1641.51 43.9879 1641.63 44.1265C1644.62 47.617 1647.54 51.2855 1650.29 55.0535C1650.34 55.1138 1650.37 55.1927 1650.37 55.2719C1650.37 55.3817 1650.32 55.4798 1650.23 55.5481C1650.16 55.5856 1650.09 55.6112 1650.02 55.606ZM1631.88 34.5133C1631.8 34.5144 1631.71 34.4791 1631.65 34.425C1628.33 31.1402 1624.88 28.0036 1621.37 25.0568C1621.3 25.0028 1621.25 24.912 1621.24 24.8206C1621.24 24.7292 1621.27 24.6373 1621.33 24.5694C1621.44 24.4276 1621.67 24.4124 1621.82 24.5202C1625.35 27.4789 1628.82 30.6396 1632.12 33.9125C1632.19 33.9786 1632.22 34.0637 1632.22 34.1612C1632.22 34.2527 1632.18 34.3446 1632.12 34.4064C1632.06 34.4744 1631.98 34.512 1631.88 34.5133ZM1610.57 16.6711C1610.5 16.6721 1610.43 16.6487 1610.38 16.6068C1606.59 13.9564 1602.66 11.4421 1598.67 9.12983C1598.5 9.03454 1598.45 8.81569 1598.54 8.64981C1598.64 8.48995 1598.86 8.43194 1599.03 8.52121C1603.03 10.8455 1606.98 13.3778 1610.77 16.0342C1610.86 16.1062 1610.92 16.209 1610.92 16.3249C1610.92 16.392 1610.9 16.4596 1610.86 16.521C1610.79 16.6135 1610.68 16.6696 1610.57 16.6711ZM1586.53 2.70167C1586.48 2.70234 1586.42 2.69696 1586.38 2.66698C1586.01 2.50121 1585.63 2.31723 1585.24 2.1396C1585.15 2.0981 1585.09 2.02587 1585.05 1.93492C1585.02 1.84989 1585.02 1.75223 1585.06 1.67238C1585.14 1.50667 1585.36 1.42462 1585.52 1.5078C1585.9 1.6795 1586.3 1.86332 1586.67 2.0473C1586.8 2.10049 1586.87 2.22753 1586.88 2.36167C1586.88 2.41045 1586.86 2.46549 1586.84 2.5146C1586.79 2.6251 1586.66 2.69991 1586.53 2.70167Z" fill="#292526"/>
</svg>
